<svg width="21" height="16" viewBox="0 0 21 16" fill="none" xmlns="http://www.w3.org/2000/svg">
<path d="M20.7997 13.4V2.60005C20.7997 1.60405 19.9957 0.800049 18.9997 0.800049H2.1877C1.1917 0.800049 0.387695 1.60405 0.387695 2.60005V13.4C0.387695 14.396 1.1917 15.2 2.1877 15.2H18.9997C19.9957 15.2 20.7997 14.396 20.7997 13.4ZM19.2277 2.46805C19.6237 2.86405 19.4077 3.27205 19.1917 3.47605L14.3197 7.94005L18.9997 12.812C19.1437 12.98 19.2397 13.244 19.0717 13.424C18.9157 13.616 18.5557 13.604 18.3997 13.484L13.1557 9.00805L10.5877 11.348L8.0317 9.00805L2.7877 13.484C2.6317 13.604 2.2717 13.616 2.1157 13.424C1.9477 13.244 2.0437 12.98 2.1877 12.812L6.8677 7.94005L1.9957 3.47605C1.7797 3.27205 1.5637 2.86405 1.9597 2.46805C2.3557 2.07205 2.7637 2.26405 3.0997 2.55205L10.5877 8.60005L18.0877 2.55205C18.4237 2.26405 18.8317 2.07205 19.2277 2.46805Z" fill="#F7EFE8"/>
</svg>
