<svg width="21" height="20" viewBox="0 0 21 20" fill="none" xmlns="http://www.w3.org/2000/svg">
<path d="M10.0341 6.33203C8.01009 6.33203 6.36609 7.97603 6.36609 10C6.36609 12.024 8.01009 13.672 10.0341 13.672C12.0581 13.672 13.7061 12.024 13.7061 10C13.7061 7.97603 12.0581 6.33203 10.0341 6.33203Z" fill="#F7EFE8"/>
<path d="M15.5697 0H4.49769C2.03769 0 0.0336914 2.004 0.0336914 4.464V15.536C0.0336914 18 2.03769 20 4.49769 20H15.5697C18.0337 20 20.0337 18 20.0337 15.536V4.464C20.0337 2.004 18.0337 0 15.5697 0ZM10.0337 16.48C6.46169 16.48 3.55369 13.572 3.55369 10C3.55369 6.428 6.46169 3.524 10.0337 3.524C13.6057 3.524 16.5137 6.428 16.5137 10C16.5137 13.572 13.6057 16.48 10.0337 16.48ZM16.6497 4.7C15.8937 4.7 15.2777 4.088 15.2777 3.332C15.2777 2.576 15.8937 1.96 16.6497 1.96C17.4057 1.96 18.0217 2.576 18.0217 3.332C18.0217 4.088 17.4057 4.7 16.6497 4.7Z" fill="#F7EFE8"/>
</svg>
