<svg width="13" height="23" viewBox="0 0 13 23" fill="none" xmlns="http://www.w3.org/2000/svg">
<path d="M8.93262 15.2504C9.8059 15.5282 10.5531 15.9314 11.1068 16.4203L11.1311 16.4433C11.8004 17.0429 12.1903 17.7706 12.1903 18.5638C12.1903 19.6376 11.4765 20.5924 10.3226 21.2672C9.23277 21.9051 7.73692 22.2999 6.09482 22.2999C5.71599 22.2999 5.33994 22.2784 4.97294 22.2366C4.59689 22.1941 4.23407 22.1314 3.88935 22.0506C3.67138 21.9998 3.53558 21.7811 3.58642 21.5632C3.63726 21.3452 3.85592 21.2094 4.07389 21.2602C4.39075 21.3341 4.72154 21.3919 5.06208 21.4302C5.39147 21.4671 5.73758 21.4866 6.09552 21.4866C7.59555 21.4866 8.94446 21.1356 9.91384 20.5687C10.8185 20.0395 11.3784 19.3284 11.3784 18.5631C11.3784 18.0144 11.0893 17.4928 10.5935 17.0471L10.5705 17.0283C10.0559 16.5749 9.33444 16.2037 8.48136 15.9593C7.88594 16.8688 7.2007 17.818 6.41725 18.8075C6.39706 18.834 6.37338 18.8584 6.34622 18.88C6.17143 19.0179 5.91655 18.9886 5.77866 18.8131C4.99313 17.8215 4.30579 16.8695 3.71038 15.9593C3.42834 16.0401 3.16092 16.1348 2.91022 16.242C2.57804 16.3834 2.2772 16.545 2.01536 16.7232C1.83082 16.8486 1.57872 16.8005 1.45337 16.6153C1.32802 16.4308 1.37607 16.1787 1.56131 16.0533C1.87051 15.8437 2.21731 15.6564 2.59267 15.4962C2.80437 15.4057 3.02722 15.3235 3.25912 15.2497C0.419228 10.65 -0.0591933 7.13392 0.681768 4.72022C1.50421 2.04051 3.80091 0.699951 6.09622 0.699951C8.39153 0.699951 10.6875 2.03981 11.5107 4.72022C12.2516 7.13392 11.7732 10.6507 8.93332 15.2504H8.93262ZM2.92485 20.8918C3.13098 20.9782 3.22708 21.2157 3.14073 21.4218C3.05438 21.6279 2.81691 21.724 2.61077 21.6377C2.2584 21.4887 1.93319 21.3173 1.64279 21.1286C1.34682 20.9357 1.08289 20.7226 0.860741 20.4949C0.704749 20.3347 0.708231 20.0778 0.868401 19.9225C1.02857 19.7665 1.28554 19.77 1.44084 19.9301C1.6219 20.1161 1.83848 20.2902 2.08291 20.4496C2.335 20.6133 2.61774 20.7623 2.92415 20.8918H2.92485ZM0.877454 19.0185C0.939433 19.233 0.816172 19.458 0.601683 19.52C0.387194 19.5819 0.16226 19.4587 0.100281 19.2442C0.0675502 19.1314 0.0417837 19.0179 0.0257667 18.9064C0.00905329 18.7901 0 18.6759 0 18.5638C0 18.2901 0.0480511 18.0206 0.139278 17.7595C0.230506 17.4976 0.365606 17.2476 0.537615 17.0122C0.669929 16.8319 0.923416 16.7929 1.10378 16.9252C1.28415 17.0575 1.32315 17.311 1.19083 17.4914C1.06478 17.6634 0.967289 17.8423 0.903221 18.0255C0.843331 18.1968 0.811994 18.3779 0.811994 18.5631C0.811994 18.6439 0.817564 18.7205 0.827314 18.7915C0.838456 18.8695 0.85517 18.9461 0.876061 19.0179L0.877454 19.0185ZM6.09552 3.30167C5.24871 3.30167 4.48198 3.64499 3.92696 4.20002C3.37193 4.75504 3.02861 5.52177 3.02861 6.36858C3.02861 7.20356 3.36357 7.96123 3.90606 8.51486L3.92696 8.53715C4.48198 9.09217 5.2494 9.4355 6.09552 9.4355C6.94024 9.4355 7.70628 9.09217 8.26269 8.53645C8.81911 7.97934 9.16243 7.21331 9.16243 6.36858C9.16243 5.52247 8.81911 4.75504 8.26269 4.20002C7.70767 3.64499 6.94094 3.30167 6.09552 3.30167Z" fill="#F7EFE8"/>
</svg>
