<svg width="22" height="18" viewBox="0 0 22 18" fill="none" xmlns="http://www.w3.org/2000/svg">
<path d="M19.7433 0.154495C19.7433 0.154495 21.686 -0.603005 21.5241 1.23664C21.4701 1.99415 20.9845 4.6454 20.6067 7.5131L19.3116 16.0079C19.3116 16.0079 19.2037 17.2524 18.2324 17.4688C17.261 17.6852 15.8041 16.7113 15.5342 16.4949C15.3184 16.3326 11.4871 13.8977 10.138 12.7074C9.76024 12.3827 9.32854 11.7334 10.1919 10.976L15.858 5.56525C16.5056 4.91595 17.1531 3.40095 14.455 5.2406L6.90024 10.3808C6.90024 10.3808 6.03684 10.9219 4.41799 10.4349L0.910402 9.35275C0.910402 9.35275 -0.384703 8.54115 1.82777 7.7295C7.22404 5.18645 13.8614 2.5893 19.7433 0.154495Z" fill="#F7EFE8"/>
</svg>
