<svg width="111" height="88" viewBox="0 0 111 88" fill="none" xmlns="http://www.w3.org/2000/svg">
<path d="M41.4375 49.8594C40.7906 49.8594 40.2656 49.3344 40.2656 48.6875V8.84375C40.2656 6.65234 41.1187 4.59219 42.668 3.04297C44.2172 1.49375 46.2773 0.640625 48.4688 0.640625C50.6602 0.640625 52.7203 1.49375 54.2695 3.04297C55.8164 4.59219 56.6695 6.65 56.6719 8.84141V8.84375C56.6719 9.49063 56.1469 10.0156 55.5 10.0156C54.8531 10.0156 54.3281 9.49063 54.3281 8.84375C54.3234 5.61875 51.6938 2.98906 48.4688 2.98438C45.2438 2.98906 42.6164 5.61875 42.6094 8.84375V48.6875C42.6094 49.3344 42.0844 49.8594 41.4375 49.8594Z" fill="#203D36"/>
<path d="M67.2188 49.8594C66.5719 49.8594 66.0469 49.3344 66.0469 48.6875V8.84375C66.0469 6.65234 66.9 4.59219 68.4492 3.04297C69.9982 1.49375 72.0584 0.640625 74.25 0.640625C76.4414 0.640625 78.5016 1.49375 80.0508 3.04297C81.5998 4.59219 82.4531 6.65234 82.4531 8.84375C82.4531 9.49063 81.9281 10.0156 81.2812 10.0156C80.6344 10.0156 80.1094 9.49063 80.1094 8.84375C80.1045 5.61875 77.475 2.98906 74.25 2.98438C71.025 2.98906 68.3953 5.61875 68.3906 8.84375V48.6875C68.3906 49.3344 67.8656 49.8594 67.2188 49.8594Z" fill="#203D36"/>
<path d="M55.5 77.9844C46.4578 77.9844 37.725 76.7188 30.2461 74.3258C26.6039 73.1588 23.3414 71.7547 20.5547 70.1539C17.707 68.5203 15.3656 66.6875 13.5937 64.7094C12.375 63.35 11.4352 61.9112 10.7977 60.432C10.132 58.8922 9.79688 57.3078 9.79688 55.7188C9.79688 53.888 10.2422 52.0695 11.1187 50.3164C11.9555 48.6406 13.1836 47.0258 14.768 45.5141C14.9883 45.3052 15.2742 45.1906 15.5789 45.1906C15.9023 45.1906 16.2023 45.3195 16.425 45.5516C16.6406 45.7789 16.7578 46.0763 16.7508 46.388C16.7437 46.7023 16.6148 46.9927 16.3875 47.2084C13.5703 49.9086 12.1406 52.7727 12.1406 55.7188C12.143 58.2664 13.2188 60.7648 15.3422 63.1484C17.4492 65.5109 20.6203 67.7328 24.5133 69.575C32.7609 73.4867 43.7578 75.6406 55.4766 75.6406H55.5094C64.3102 75.6406 72.7922 74.4148 80.0414 72.0945C86.9367 69.8914 92.482 66.7156 95.6578 63.1484C97.7812 60.7648 98.857 58.2664 98.8594 55.7188C98.857 53.1711 97.781 50.6727 95.6578 48.2891C93.5508 45.9266 90.3794 43.7047 86.4867 41.8625C78.2391 37.9508 67.2422 35.7969 55.5234 35.7969H55.4859C45.5156 35.7969 35.768 37.4188 28.0359 40.3648C27.9 40.4164 27.7617 40.4422 27.6187 40.4422C27.1359 40.4422 26.6953 40.1398 26.5219 39.6875C26.4727 39.5539 26.4469 39.4133 26.4469 39.2703C26.4445 38.7875 26.7492 38.3469 27.2016 38.1758C31.1461 36.6734 35.543 35.5039 40.268 34.7023C45.1406 33.875 50.2664 33.4531 55.5 33.4531C64.5445 33.4531 73.2773 34.7188 80.7563 37.1117C84.3961 38.2789 87.6562 39.6828 90.4453 41.2836C93.293 42.9172 95.6346 44.7502 97.4062 46.7281C98.625 48.0875 99.5648 49.5266 100.202 51.0031C100.868 52.5453 101.203 54.1297 101.203 55.7188C101.203 57.3078 100.868 58.8922 100.202 60.4318C99.5648 61.9109 98.6252 63.3474 97.4062 64.7091C95.0555 67.3391 91.718 69.6873 87.4898 71.6938C78.9232 75.7461 67.5633 77.982 55.5 77.9844ZM21.2508 43.4094C20.8289 43.4094 20.4398 43.182 20.2312 42.8164C19.9125 42.2562 20.1094 41.5391 20.6695 41.218C20.8453 41.1172 21.0469 41.0656 21.2484 41.0656C21.6703 41.0656 22.0594 41.2906 22.268 41.6562C22.4227 41.9281 22.4625 42.2445 22.3805 42.5469C22.2961 42.8492 22.1016 43.1 21.8297 43.2547C21.6539 43.3555 21.4523 43.4094 21.2508 43.4094Z" fill="#203D36"/>
<path d="M55.5 87.3592C50.3461 87.3543 45.2578 86.9818 40.3711 86.2529C35.6133 85.5428 31.0641 84.4951 26.8453 83.1425C18.4547 80.4496 11.5547 76.5941 6.89531 71.9933C6.43594 71.5389 6.43125 70.7959 6.88828 70.3365C7.10859 70.1139 7.40391 69.9897 7.72031 69.9897C8.02969 69.9897 8.32266 70.1118 8.54531 70.3295C17.5008 79.2521 35.8922 85.0154 55.4016 85.0154H55.5094C66.1781 85.0154 76.4623 83.3842 85.2513 80.2998C93.6328 77.3631 100.383 73.1186 104.261 68.3443C106.896 65.1053 108.232 61.6857 108.234 58.1865C108.234 58.1839 108.234 58.1839 108.234 58.1816C108.236 57.5371 108.761 57.0146 109.406 57.0146C110.053 57.0146 110.578 57.5394 110.578 58.1865C110.578 60.2303 110.182 62.2717 109.401 64.2566C108.646 66.1738 107.529 68.0464 106.078 69.8254C103.26 73.2824 99.248 76.3785 94.1573 79.0246C89.1066 81.6472 83.2448 83.7004 76.7339 85.1326C70.0148 86.6092 62.8711 87.3568 55.5 87.3592ZM3.49687 66.7553C3.05859 66.7553 2.66016 66.516 2.45859 66.1295C2.31094 65.8529 2.28281 65.5342 2.37656 65.2363C2.46797 64.9365 2.67188 64.6928 2.94844 64.5451C3.11719 64.4584 3.30469 64.4115 3.49453 64.4115C3.93047 64.4115 4.32891 64.6506 4.53047 65.0373C4.53281 65.0373 4.53281 65.0373 4.53281 65.0373C4.83281 65.6092 4.6125 66.3193 4.04062 66.6217C3.87187 66.7084 3.68437 66.7553 3.49687 66.7553ZM1.61016 60.0568C0.982031 60.0568 0.46875 59.5646 0.440625 58.9389C0.428906 58.6904 0.421875 58.4373 0.421875 58.1865C0.421875 57.5394 0.946875 57.0146 1.59375 57.0146C2.24063 57.0146 2.76562 57.5394 2.76562 58.1865C2.76562 58.3902 2.77031 58.6084 2.77969 58.8285C2.78203 58.8496 2.78203 58.8683 2.78203 58.8896C2.77969 59.5129 2.28984 60.024 1.66641 60.0545C1.64766 60.0545 1.62891 60.0568 1.61016 60.0568Z" fill="#203D36"/>
<path d="M67.2188 17.0469H41.4375C40.7906 17.0469 40.2656 16.5219 40.2656 15.875C40.2656 15.2281 40.7906 14.7031 41.4375 14.7031H67.2188C67.8656 14.7031 68.3906 15.2281 68.3906 15.875C68.3906 16.5219 67.8656 17.0469 67.2188 17.0469Z" fill="#203D36"/>
<path d="M67.2188 26.4219H41.4375C40.7906 26.4219 40.2656 25.8969 40.2656 25.25C40.2656 24.6031 40.7906 24.0781 41.4375 24.0781H67.2188C67.8656 24.0781 68.3906 24.6031 68.3906 25.25C68.3906 25.8969 67.8656 26.4219 67.2188 26.4219Z" fill="#203D36"/>
<path d="M55.5 54.5467C55.2234 54.5467 54.9563 54.4483 54.7453 54.2699C54.7453 54.2699 54.7313 54.2608 54.6961 54.2301C54.6539 54.1951 54.593 54.148 54.5297 54.0967C54.3938 53.9889 54.1688 53.8155 53.8805 53.6043C53.3695 53.2316 52.5516 52.6668 51.5695 52.0996C50.2008 51.303 47.5359 49.9647 45.082 49.9647H45.0445C43.6289 49.9715 42.5109 50.3629 41.5266 51.1926C39.0352 53.3162 36.5578 53.7613 34.9195 53.7613H34.8844C33.5297 53.7566 32.1867 53.4848 30.8883 52.9598C30.4266 52.7723 29.7375 52.4535 29.0719 52.0061C29.0531 51.9941 29.0438 51.9873 29.0367 51.9848C29.0367 51.9824 29.0344 51.9824 29.0344 51.9824C28.5117 51.6053 28.3899 50.8741 28.7649 50.3488C28.9852 50.0418 29.3414 49.859 29.7188 49.859C29.9625 49.859 30.1969 49.9337 30.3984 50.0746C30.3984 50.0746 30.4008 50.077 30.4055 50.0816C30.4102 50.084 30.4172 50.0884 30.4242 50.0934C30.4336 50.1004 30.4453 50.1074 30.457 50.1168C30.532 50.1637 30.6117 50.2129 30.6961 50.2621C30.893 50.3769 31.2164 50.5527 31.6383 50.7309C32.3766 51.0449 33.5367 51.4176 34.882 51.4176C36.7383 51.4082 38.4141 50.7496 40.0102 49.4043C41.3766 48.2394 43.1063 47.623 45.0117 47.623H45.0445C47.3625 47.6324 49.8797 48.4316 52.7414 50.0697C54.7172 51.2087 56.1 52.348 56.25 52.4746L56.2547 52.4793C56.7492 52.8944 56.8125 53.6348 56.3953 54.1293C56.1727 54.3944 55.8467 54.5467 55.5 54.5467Z" fill="#203D36"/>
<path d="M55.5 54.547C55.1531 54.547 54.8274 54.3946 54.6047 54.1298C54.1875 53.6376 54.2508 52.8946 54.7453 52.4798L54.7477 52.4774C54.8977 52.3509 56.2758 51.2142 58.2584 50.0702C61.1201 48.4321 63.6373 47.6329 65.9553 47.6235H65.9883C67.8938 47.6235 69.6235 48.2399 70.9899 49.4048C72.586 50.7501 74.2617 51.4087 76.1133 51.4181H76.1531C77.4164 51.4181 78.5367 51.0691 79.2516 50.7761C80.0203 50.4618 80.5266 50.1339 80.5969 50.0798C80.5969 50.0798 80.5992 50.0798 80.5992 50.0774C80.6016 50.0774 80.6039 50.0751 80.6039 50.0751C80.8034 49.9342 81.0378 49.8595 81.2815 49.8595C81.6586 49.8595 82.0151 50.0423 82.2352 50.3493C82.6104 50.8743 82.4883 51.6079 81.9635 51.9829C81.9586 51.9878 81.9471 51.9946 81.9305 52.0066C81.2649 52.454 80.576 52.7706 80.1141 52.9581C78.8156 53.4855 77.4706 53.7574 76.1135 53.7621H76.0784C74.4401 53.7621 71.9651 53.317 69.4737 51.1933C68.4893 50.3636 67.3711 49.9722 65.9555 49.9654H65.9227C63.6 49.9654 61.0828 51.1746 59.7914 51.8964C57.8815 52.9511 56.461 54.1019 56.3039 54.2308C56.269 54.2589 56.2571 54.2707 56.2547 54.2707C56.0435 54.4485 55.7766 54.547 55.5 54.547Z" fill="#203D36"/>
<path d="M55.4976 63.9219C55.2398 63.9219 54.9937 63.8396 54.7875 63.6805C54.7875 63.6805 54.7781 63.6735 54.743 63.6477C54.7101 63.6219 54.6562 63.5821 54.5859 63.5329C54.3961 63.3969 54.1875 63.2539 53.9695 63.111C53.4797 62.7875 52.6992 62.3 51.757 61.8125C50.4328 61.1235 47.8523 59.9657 45.4312 59.9657H45.4008C43.8281 59.9725 42.5953 60.3969 41.5266 61.299C39.2391 63.2514 36.9773 63.6615 35.482 63.6615H35.4469C32.2594 63.6381 29.8851 62.0303 29.0133 61.3389C28.9851 61.3178 28.9687 61.3039 28.9617 61.3014C28.4672 60.8821 28.4062 60.1414 28.8258 59.649C29.0484 59.3842 29.3742 59.2342 29.7187 59.2342C29.9953 59.2342 30.2625 59.3326 30.4734 59.5084L30.4758 59.5107C30.4781 59.5131 30.4805 59.5157 30.4851 59.5201C30.4969 59.5295 30.518 59.5459 30.5484 59.5693C30.6047 59.6115 30.6984 59.6818 30.8226 59.7688C31.0476 59.9258 31.418 60.1646 31.8867 60.4039C32.7047 60.8209 33.982 61.3178 35.4375 61.3178H35.4469C37.0851 61.3084 38.5781 60.7178 40.0101 59.5131C41.4609 58.2758 43.3125 57.624 45.368 57.624H45.4008C47.6578 57.6287 50.0883 58.3201 52.8328 59.7311C54.6797 60.6873 55.9666 61.6342 56.2055 61.8123L56.2104 61.8193C56.7258 62.2107 56.8242 62.9467 56.4305 63.46C56.2078 63.7532 55.8677 63.9219 55.4976 63.9219Z" fill="#203D36"/>
<path d="M55.5024 63.9217C55.132 63.9217 54.7922 63.7529 54.5695 63.46C54.3774 63.2113 54.2977 62.9045 54.3375 62.5951C54.3797 62.2834 54.5391 62.0092 54.7899 61.8193C54.9352 61.7089 56.2477 60.7246 58.1649 59.7311C60.9117 58.3199 63.3422 57.6285 65.5992 57.624H65.6297C67.6875 57.624 69.5391 58.2756 70.9899 59.5131C72.4219 60.718 73.9125 61.3084 75.5531 61.3178C75.5695 61.3178 75.5883 61.3178 75.607 61.3178C78.2693 61.3178 80.4373 59.5857 80.5195 59.5157C80.5219 59.5131 80.5219 59.5131 80.5242 59.5107H80.5268C80.7375 59.3326 81.0047 59.2342 81.2815 59.2342C81.626 59.2342 81.9516 59.3842 82.1745 59.649C82.5917 60.1414 82.5309 60.8821 82.0385 61.299C82.0317 61.3039 82.0151 61.3201 81.987 61.3414C81.113 62.0303 78.7385 63.6383 75.5534 63.6615H75.5206C74.0252 63.6615 71.7612 63.2514 69.4737 61.299C68.419 60.4084 67.151 59.9725 65.5995 59.9678H65.5713C63.2768 59.9678 60.8395 61.0131 59.5901 61.6365C57.7524 62.5482 56.4047 63.5371 56.257 63.6475C56.2221 63.673 56.2149 63.6779 56.2127 63.6803C56.2127 63.6803 56.2127 63.6803 56.2104 63.6826C56.0063 63.8394 55.7599 63.9217 55.5024 63.9217Z" fill="#203D36"/>
</svg>
