<svg width="95" height="116" viewBox="0 0 95 116" fill="none" xmlns="http://www.w3.org/2000/svg">
<path d="M19.073 38.1732C19.073 38.8091 19.5891 39.3252 20.225 39.3252C20.8609 39.3252 21.377 38.8091 21.377 38.1732C21.377 37.2654 21.6351 36.861 21.9933 36.3035C22.43 35.6215 22.9737 34.7725 22.9737 33.1896C22.9737 31.6067 22.43 30.7577 21.9933 30.0757C21.6362 29.5181 21.377 29.1138 21.377 28.2048C21.377 27.2924 21.6362 26.8881 21.9945 26.3282C22.43 25.6462 22.9737 24.796 22.9737 23.212C22.9737 21.628 22.43 20.7778 21.9933 20.0958C21.6351 19.536 21.377 19.1316 21.377 18.2204C21.377 17.5845 20.8609 17.0684 20.225 17.0684C19.5891 17.0684 19.073 17.5845 19.073 18.2204C19.073 19.8055 19.6167 20.6546 20.0534 21.3377C20.4116 21.8976 20.6697 22.3019 20.6697 23.2132C20.6697 24.1244 20.4105 24.5288 20.0534 25.0887C19.6167 25.7706 19.073 26.6208 19.073 28.206C19.073 29.79 19.6167 30.6379 20.0534 31.3199C20.4105 31.8775 20.6697 32.2818 20.6697 33.1907C20.6697 34.0997 20.4105 34.5029 20.0534 35.0616C19.6167 35.7413 19.073 36.5903 19.073 38.1732Z" fill="#203D36"/>
<path d="M43.1893 30.091C43.1893 30.727 43.7054 31.2431 44.3413 31.2431C44.9773 31.2431 45.4934 30.727 45.4934 30.091C45.4934 28.9782 45.8067 28.4886 46.241 27.8112C46.7364 27.0382 47.3527 26.0763 47.3527 24.2872C47.3527 22.4981 46.7364 21.5374 46.241 20.7644C45.8079 20.087 45.4934 19.5962 45.4934 18.4822C45.4934 17.3659 45.8067 16.8752 46.241 16.1955C46.7364 15.4225 47.3515 14.4583 47.3515 12.668C47.3515 10.8778 46.7352 9.91358 46.241 9.13943C45.8067 8.45975 45.4934 7.96899 45.4934 6.85269C45.4934 6.21678 44.9773 5.70068 44.3413 5.70068C43.7054 5.70068 43.1893 6.21678 43.1893 6.85269C43.1893 8.64292 43.8057 9.606 44.2999 10.3801C44.7342 11.0598 45.0475 11.5506 45.0475 12.6669C45.0475 13.7832 44.7342 14.2739 44.2999 14.9525C43.8045 15.7266 43.1893 16.6897 43.1893 18.4811C43.1893 20.2702 43.8057 21.2321 44.301 22.0062C44.7353 22.6836 45.0487 23.1732 45.0487 24.2861C45.0487 25.3989 44.7353 25.8897 44.301 26.5659C43.8057 27.3412 43.1893 28.3031 43.1893 30.091Z" fill="#203D36"/>
<path d="M66.9496 36.9106C66.9496 37.5465 67.4645 38.0626 68.1016 38.0626C68.7387 38.0626 69.2536 37.5465 69.2536 36.9106C69.2536 35.0409 69.825 34.1492 70.4863 33.117C71.2351 31.9489 72.0841 30.6252 72.0841 28.0793C72.0841 25.5322 71.2362 24.2073 70.4863 23.0392C69.825 22.0059 69.2536 21.1142 69.2536 19.241C69.2536 17.3667 69.825 16.4739 70.4863 15.4394C71.2351 14.2701 72.0841 12.9441 72.0841 10.3959C72.0841 7.84765 71.2362 6.52168 70.4863 5.35239C69.825 4.31904 69.2536 3.42508 69.2536 1.55191C69.2536 0.916003 68.7387 0.399902 68.1016 0.399902C67.4645 0.399902 66.9496 0.916003 66.9496 1.55191C66.9496 4.10016 67.7975 5.42497 68.5463 6.59426C69.2087 7.62761 69.7801 8.52157 69.7801 10.3959C69.7801 12.2702 69.2087 13.163 68.5463 14.1975C67.7986 15.3668 66.9496 16.6928 66.9496 19.241C66.9496 21.7881 67.7975 23.1129 68.5474 24.2822C69.2087 25.3144 69.7801 26.2072 69.7801 28.0793C69.7801 29.9501 69.2087 30.8418 68.5474 31.874C67.7975 33.041 66.9496 34.3658 66.9496 36.9106Z" fill="#203D36"/>
<path d="M84.0316 93.9756C82.5121 93.9756 81.0663 94.2936 79.7519 94.8627L68.5267 75.6276C73.6289 70.2281 76.85 63.0396 77.1356 55.1114H87.6316C88.2687 55.1114 88.7836 54.5953 88.7836 53.9594V48.0231C88.7836 47.3872 88.2687 46.8711 87.6316 46.8711H3.5268C2.89089 46.8711 2.37479 47.3872 2.37479 48.0231V53.9583C2.37479 54.5942 2.89089 55.1103 3.5268 55.1103H14.0228C14.3096 63.0384 17.5295 70.227 22.6306 75.6264L0.312693 113.867C-0.00756576 114.417 0.177909 115.122 0.727418 115.442C0.909435 115.549 1.10989 115.6 1.30688 115.6C1.70317 115.6 2.08909 115.395 2.30337 115.029L7.94361 105.362H73.2488C73.5506 111.056 78.2635 115.6 84.0304 115.6C89.9932 115.6 94.8444 110.75 94.8444 104.787C94.8444 98.8244 89.9944 93.9756 84.0316 93.9756ZM4.67881 49.1751H86.4796V52.8063H4.67881V49.1751ZM74.8316 55.1103C74.2245 70.7235 61.3393 83.2389 45.5786 83.2389C29.8191 83.2389 16.9339 70.7235 16.3256 55.1103H74.8316ZM24.3217 77.2991C29.9378 82.4175 37.3994 85.5429 45.5786 85.5429C53.7579 85.5429 61.2206 82.4164 66.8355 77.298L77.752 96.0032C75.4606 97.6471 73.8409 100.158 73.372 103.058H9.28916L24.3217 77.2991ZM84.0316 113.296C79.3406 113.296 75.524 109.479 75.524 104.787C75.524 100.095 79.3406 96.2785 84.0316 96.2785C88.7237 96.2785 92.5415 100.095 92.5415 104.787C92.5415 109.479 88.7237 113.296 84.0316 113.296Z" fill="#203D36"/>
</svg>
