<svg width="78" height="102" viewBox="0 0 78 102" fill="none" xmlns="http://www.w3.org/2000/svg">
<path d="M73.7069 75.9068L57.8176 71.7314C58.284 71.3277 58.7504 70.9027 59.1951 70.4671C64.5855 65.1869 67.5573 58.1642 67.5573 50.6953C67.5789 43.0883 64.5855 36.905 64.4553 36.6394C64.1625 36.0444 63.4575 35.7788 62.8393 36.0232L56.4619 38.5518C59.0541 25.0058 54.7266 15.4865 50.4967 9.78121C45.6594 3.2579 40.0195 0.272477 39.7809 0.144986C39.4013 -0.0568757 38.9349 -0.0462515 38.5553 0.166234C38.1757 0.37872 37.9371 0.761194 37.9154 1.18617C37.9046 1.33491 37.1128 15.5714 29.9762 24.2727L22.8505 18.8331C22.5034 18.5675 22.037 18.4931 21.6249 18.6525C21.2127 18.8012 20.909 19.1518 20.8223 19.5768C19.9221 24.1346 17.8613 28.5543 15.8765 32.8253C13.2301 38.5199 10.4861 44.4058 10.4536 50.6847C10.4211 58.1111 13.3494 65.1125 18.7182 70.4034C19.1845 70.8708 19.6726 71.3064 20.1715 71.742L4.29312 75.9068C1.28881 76.693 -0.22962 80.3796 0.844124 84.2999C1.33219 86.0848 2.30832 87.6572 3.58814 88.6984C4.64019 89.559 5.83324 90.0158 7.0046 90.0158C7.3842 90.0158 7.75296 89.9733 8.11088 89.8777L31.6139 83.705V96.5604C31.6139 99.6095 34.8569 102 39 102C43.1431 102 46.3861 99.6095 46.3861 96.5604V83.705L69.8891 89.8777C70.2687 89.9733 70.6483 90.0264 71.0279 90.0264C73.6635 90.0264 76.2231 87.721 77.1559 84.2999C78.2296 80.3796 76.7112 76.693 73.7069 75.9068ZM12.9807 50.706C13.0132 44.9582 15.5186 39.5717 18.1759 33.8665C19.9546 30.0523 21.7767 26.132 22.8505 22.0098L29.358 26.9819C29.8894 27.3856 30.6378 27.3219 31.0825 26.8332C37.807 19.4706 39.7267 8.08133 40.2473 3.40664C42.1995 4.73468 45.5401 7.34825 48.4902 11.3536C54.4771 19.4812 56.1582 29.2236 53.4793 40.3154C53.3708 40.7722 53.5227 41.2397 53.8914 41.5478C54.2493 41.8559 54.7591 41.9303 55.1929 41.7603L62.6332 38.8174C63.4467 40.836 65.041 45.4576 65.0193 50.7166C65.0193 57.5267 62.3187 63.9226 57.3946 68.7354C52.4815 73.5269 45.9522 76.183 39 76.183C32.0044 76.183 25.4426 73.5057 20.5077 68.6504C15.6271 63.8376 12.9481 57.463 12.9807 50.706ZM39 84.7037C38.295 84.7037 37.731 85.2561 37.731 85.9467V91.2057C36.3644 91.3757 35.1497 91.8007 34.1627 92.4275V78.2654C35.7462 78.531 37.3623 78.6584 39.0108 78.6584C40.6486 78.6584 42.2646 78.5203 43.859 78.2547V92.4169C42.872 91.7901 41.6464 91.3545 40.2907 91.1951V85.9361C40.269 85.2561 39.705 84.7037 39 84.7037ZM5.21502 86.7966C4.34735 86.0848 3.64237 84.9374 3.2953 83.6519C2.61201 81.1658 3.37122 78.7222 4.94387 78.3078C5.10656 78.2653 5.25841 78.2441 5.41025 78.2441C6.15862 78.2441 6.82022 78.6797 7.18898 78.9772C8.05665 79.689 8.76163 80.8364 9.1087 82.122C9.79199 84.608 9.03278 87.0516 7.46012 87.466C6.51653 87.721 5.64886 87.1579 5.21502 86.7966ZM11.5273 86.4035C11.8853 85.3092 11.9937 84.0343 11.8093 82.7063L16.9937 81.3464C17.6661 81.1658 18.0783 80.4858 17.8939 79.8271C17.7095 79.1684 17.0154 78.7753 16.3429 78.9453L11.1586 80.3052C10.6488 79.094 9.9113 78.0422 9.01109 77.2454L22.6661 73.665C25.3992 75.5349 28.4144 76.9054 31.6248 77.7341V81.1339L11.5273 86.4035ZM39 99.5033C36.3753 99.5033 34.1519 98.154 34.1519 96.5604C34.1519 94.9667 36.3753 93.6068 39 93.6068C41.6247 93.6068 43.8481 94.9561 43.8481 96.5497C43.8481 98.1434 41.6247 99.5033 39 99.5033ZM46.3861 77.7235C49.5856 76.8948 52.6008 75.5243 55.3231 73.6544L68.9889 77.2454C68.0887 78.0422 67.3512 79.094 66.8414 80.3052L61.6571 78.9453C60.9846 78.7647 60.2797 79.1578 60.1061 79.8271C59.9217 80.4858 60.323 81.1764 61.0063 81.3464L66.1907 82.7063C66.0063 84.0343 66.1148 85.3092 66.4727 86.4035L46.3861 81.1339V77.7235ZM74.7047 83.6519C74.0214 86.1379 72.1234 87.8803 70.5399 87.466C68.9672 87.0516 68.208 84.608 68.8913 82.122C69.2384 80.8364 69.9434 79.6996 70.811 78.9772C71.2449 78.616 72.1234 78.0529 73.0561 78.2972C74.6288 78.7222 75.388 81.1764 74.7047 83.6519ZM39 72.2945C42.8937 72.2945 46.5487 70.8071 49.3036 68.1085C52.0585 65.41 53.566 61.8296 53.566 58.0155C53.5769 54.1588 52.0585 51.0141 51.9934 50.8866C51.7006 50.2916 50.9956 50.026 50.3774 50.2704L48.3383 51.0778C49.206 44.852 47.1453 40.411 45.1279 37.6912C42.6768 34.3977 39.8026 32.8678 39.6833 32.804C39.3037 32.6022 38.8373 32.6128 38.4577 32.8253C38.0781 33.0378 37.8395 33.4202 37.8178 33.8452C37.8178 33.909 37.4599 40.1348 34.4773 44.2251L31.5272 41.9728C31.1801 41.7072 30.7137 41.6328 30.3016 41.7922C29.8894 41.9409 29.5858 42.2915 29.499 42.7165C29.076 44.8626 28.089 46.9768 27.1346 49.0273C25.8114 51.864 24.4448 54.7963 24.434 57.9942C24.4123 61.7871 25.909 65.3568 28.653 68.0554C31.4079 70.7965 35.0846 72.2945 39 72.2945ZM29.4448 50.0791C30.1931 48.4749 30.9523 46.8387 31.4946 45.1176L33.9024 46.9556C34.4339 47.3593 35.1822 47.2956 35.6269 46.8068C38.577 43.5771 39.6941 38.8599 40.1063 36.1294C40.9956 36.8306 42.1128 37.8612 43.1323 39.253C45.9088 43.0458 46.6789 47.6143 45.4208 52.8096C45.3123 53.2664 45.4642 53.7339 45.8329 54.042C46.1908 54.3501 46.7006 54.4244 47.1344 54.2545L50.1387 53.0645C50.5292 54.1695 51.039 55.9968 51.0281 58.0261C51.0281 61.1709 49.7808 64.135 47.5032 66.3555C45.2255 68.5866 42.2104 69.8084 39 69.8084C35.7679 69.8084 32.7311 68.576 30.4534 66.3236C28.1975 64.1032 26.9611 61.1496 26.9719 58.0261C26.9827 55.3594 28.1758 52.7989 29.4448 50.0791Z" fill="#203D36"/>
</svg>
