<svg width="85" height="75" viewBox="0 0 85 75" fill="none" xmlns="http://www.w3.org/2000/svg">
<path d="M80.368 33.6573V30.5114C80.3703 24.8726 78.6579 19.3679 75.4605 14.7359C72.2632 10.1038 67.7339 6.56599 62.4801 4.59699C62.4986 4.04395 62.3702 3.49596 62.1083 3.00937C61.867 2.57528 61.5394 2.19588 61.1458 1.89486C60.7523 1.59383 60.3012 1.37763 59.8208 1.25977C53.2398 -0.419742 46.3459 -0.419926 39.7648 1.25923C39.2843 1.37668 38.833 1.59256 38.4392 1.89338C38.0454 2.1942 37.7175 2.57349 37.4761 3.00753C37.2136 3.49456 37.085 4.04316 37.1035 4.59682C31.8496 6.56575 27.3202 10.1036 24.1227 14.7357C20.9253 19.3677 19.2129 24.8725 19.2152 30.5114V31.5019C18.789 31.0892 18.36 30.6756 17.9226 30.2614C17.3702 29.7412 16.6618 29.4201 15.9084 29.3482L2.0213 28.0585C1.73363 28.0302 1.44439 28.0932 1.19406 28.2385C0.943728 28.3838 0.744835 28.6041 0.625223 28.8688C0.504626 29.1363 0.470099 29.4351 0.526462 29.7233C0.582824 30.0116 0.727262 30.2749 0.939617 30.4766C6.04188 35.2975 10.7827 40.4912 15.1233 46.0153C15.1114 46.3144 15.0858 46.6116 15.0857 46.9122H2.71774C2.40448 46.9122 2.09477 46.979 1.80902 47.1081C1.52327 47.2372 1.26795 47.4257 1.05988 47.6612C0.851816 47.8968 0.695717 48.1739 0.601868 48.4745C0.508019 48.7751 0.478549 49.0923 0.515398 49.4052L2.26131 64.225C2.57967 66.9392 3.79491 69.4674 5.71222 71.4041C7.62953 73.3409 10.1379 74.5742 12.8352 74.9063C15.5325 75.2384 18.2626 74.65 20.5878 73.2356C22.913 71.8211 24.6987 69.6624 25.6586 67.1056C32.6285 72.3196 41.1056 75.0919 49.7916 74.9977C68.9299 74.9977 84.5 62.4026 84.5 46.9212C84.4634 42.1852 83.0249 37.5675 80.368 33.6573ZM33.3603 24.5107C36.1236 26.8305 43.1454 27.9142 49.7916 27.9142C56.438 27.9142 63.4599 26.8305 66.2231 24.5105C73.3757 27.8443 78.5666 33.1613 80.9425 39.302C73.0807 42.8997 61.8103 44.9571 49.7918 44.9571C37.7742 44.9571 26.5046 42.9 18.643 39.3028C21.0186 33.1632 26.2089 27.846 33.3603 24.5107ZM49.7918 21.0009C48.8194 21.0009 47.8688 20.7109 47.0602 20.1676C46.2517 19.6242 45.6215 18.8519 45.2493 17.9483C44.8772 17.0447 44.7798 16.0504 44.9695 15.0912C45.1592 14.1319 45.6275 13.2508 46.3151 12.5592C47.0028 11.8677 47.8789 11.3967 48.8326 11.2059C49.7864 11.0151 50.775 11.113 51.6734 11.4873C52.5719 11.8616 53.3398 12.4954 53.88 13.3086C54.4203 14.1218 54.7087 15.0779 54.7087 16.0559C54.7072 17.367 54.1887 18.6239 53.2669 19.5509C52.3452 20.478 51.0954 20.9995 49.7918 21.0009ZM49.7918 23.1126C51.1148 23.1105 52.4102 22.7324 53.5288 22.0219C54.6473 21.3114 55.5434 20.2973 56.1137 19.0968C58.4425 19.3234 60.7364 19.8273 62.9471 20.5977C64.8524 21.3345 65.3559 22.0149 65.3559 22.2718C65.3559 22.5557 64.6037 23.5736 61.2614 24.4964C57.5091 25.4216 53.6546 25.8605 49.7916 25.8026C45.9286 25.8605 42.0741 25.4215 38.3218 24.4964C34.9795 23.5736 34.2273 22.5557 34.2273 22.2718C34.2273 22.0149 34.7308 21.3345 36.6361 20.5977C38.847 19.8272 41.1411 19.3233 43.4701 19.0967C44.0404 20.2973 44.9364 21.3113 46.055 22.0218C47.1735 22.7324 48.4689 23.1105 49.7918 23.1126ZM39.3203 4.01689C39.4233 3.83846 39.5617 3.68327 39.7269 3.56099C39.8921 3.43871 40.0806 3.35196 40.2806 3.30614C46.523 1.71335 53.062 1.71349 59.3044 3.30656C59.5042 3.35265 59.6926 3.43959 59.8576 3.56198C60.0227 3.68438 60.161 3.8396 60.2638 4.01802C60.3316 4.1353 60.3742 4.26552 60.389 4.40033C60.4038 4.53514 60.3905 4.67157 60.3498 4.80089C60.2282 5.11691 59.9934 5.37566 59.6915 5.52615C59.3897 5.67663 59.0427 5.70793 58.7191 5.61387C52.8609 4.11916 46.7246 4.11904 40.8663 5.61351C40.5424 5.70698 40.1953 5.67538 39.8933 5.52491C39.5913 5.37443 39.356 5.11593 39.2336 4.80007C39.1931 4.67064 39.1799 4.53414 39.1948 4.39928C39.2097 4.26442 39.2525 4.13418 39.3203 4.01689ZM37.865 6.563C38.2931 7.05504 38.8485 7.41809 39.4694 7.61182C40.0903 7.80555 40.7525 7.82237 41.3823 7.66043C46.9013 6.25213 52.6825 6.25213 58.2015 7.66043C58.4878 7.73375 58.7823 7.77088 59.0777 7.77094C59.5775 7.77101 60.0715 7.66299 60.5261 7.45423C60.9808 7.24546 61.3855 6.94083 61.7128 6.56096C66.5739 8.37525 70.766 11.6429 73.7257 15.9246C76.6854 20.2063 78.2706 25.2967 78.2683 30.5114V30.8723C75.2415 27.4292 71.5359 24.6566 67.3869 22.7306C67.4248 22.5803 67.4478 22.4266 67.4554 22.2718C67.4554 18.8737 60.6834 17.5356 56.7313 17.0433C56.8805 16.0395 56.8127 15.0152 56.5325 14.0402C56.2522 13.0652 55.7662 12.1624 55.1075 11.3935C54.4488 10.6246 53.633 10.0077 52.7156 9.58476C51.7983 9.16184 50.801 8.94291 49.7919 8.94291C48.7828 8.94291 47.7855 9.16183 46.8682 9.58473C45.9508 10.0076 45.1349 10.6246 44.4762 11.3935C43.8176 12.1624 43.3315 13.0651 43.0513 14.0401C42.771 15.0151 42.7032 16.0394 42.8524 17.0432C38.9004 17.5355 32.1276 18.8735 32.1276 22.2717C32.1353 22.4267 32.1583 22.5804 32.1962 22.7308C28.0471 24.6579 24.3415 27.4316 21.3148 30.8756V30.5114C21.3125 25.2976 22.8972 20.2081 25.8558 15.9269C28.8145 11.6457 33.0053 8.37802 37.865 6.563ZM3.84352 30.3482L15.7145 31.4508C16.0024 31.4783 16.2731 31.601 16.4843 31.7998C17.3115 32.583 18.1146 33.3616 18.8936 34.1357C17.1621 36.8425 15.9819 39.8679 15.4212 43.0367C11.8152 38.5804 7.94916 34.3434 3.84352 30.3482ZM14.3155 72.8851C11.8578 72.8843 9.48567 71.9771 7.6484 70.3353C5.81112 68.6935 4.63627 66.4311 4.34635 63.9765L2.60044 49.1567C2.59847 49.14 2.60004 49.1231 2.60504 49.1071C2.61004 49.0911 2.61835 49.0763 2.62944 49.0638C2.64052 49.0512 2.65412 49.0412 2.66934 49.0343C2.68456 49.0274 2.70106 49.0239 2.71774 49.0239H16.1568L16.1595 49.0244L16.1817 49.0239H25.9134C25.9301 49.0239 25.9466 49.0274 25.9618 49.0343C25.9771 49.0412 25.9906 49.0512 26.0017 49.0638C26.0128 49.0763 26.0211 49.0911 26.0261 49.1071C26.0311 49.1231 26.0327 49.14 26.0307 49.1567L24.2848 63.9765C23.9948 66.4311 22.82 68.6935 20.9827 70.3353C19.1454 71.9771 16.7733 72.8843 14.3155 72.8851ZM49.7916 72.886C40.9306 72.886 32.3977 69.9692 26.2622 64.8765C26.2996 64.6598 26.3437 64.4457 26.3698 64.225L28.1157 49.405C28.1525 49.0922 28.123 48.775 28.0292 48.4744C27.9353 48.1739 27.7792 47.8967 27.5712 47.6612C27.3631 47.4257 27.1078 47.2371 26.8221 47.108C26.5363 46.9789 26.2266 46.9122 25.9134 46.9122H17.1853C17.1915 45.0192 17.4554 43.1361 17.9698 41.3152C26.0901 44.9777 37.5868 47.0687 49.7918 47.0687C61.9977 47.0687 73.4951 44.9774 81.6155 41.3144C82.1309 43.1384 82.3949 45.025 82.4004 46.9212C82.4004 61.2382 67.7722 72.886 49.7916 72.886ZM75.3536 58.2843C75.46 58.3725 75.5481 58.4809 75.6128 58.6033C75.6775 58.7258 75.7176 58.8598 75.7308 58.9978C75.744 59.1358 75.7301 59.2751 75.6898 59.4077C75.6494 59.5403 75.5835 59.6636 75.4958 59.7706C69.8477 66.6603 60.2389 70.7735 49.7918 70.7735C49.6537 70.7739 49.5168 70.7469 49.3891 70.694C49.2614 70.6411 49.1453 70.5634 49.0475 70.4653C48.9496 70.3672 48.872 70.2507 48.8191 70.1224C48.7661 69.9941 48.7389 69.8566 48.7389 69.7176C48.7389 69.5787 48.7661 69.4412 48.8191 69.3129C48.872 69.1846 48.9496 69.068 49.0475 68.9699C49.1453 68.8719 49.2614 68.7942 49.3891 68.7413C49.5168 68.6884 49.6537 68.6614 49.7918 68.6618C59.6189 68.6618 68.6222 64.8358 73.8758 58.4273C73.9635 58.3203 74.0713 58.2317 74.193 58.1666C74.3147 58.1015 74.448 58.0612 74.5853 58.0479C74.7225 58.0346 74.861 58.0487 74.9928 58.0892C75.1247 58.1298 75.2473 58.1961 75.3536 58.2843ZM80.3001 46.9217C80.2978 49.2649 79.8643 51.5873 79.0215 53.7718C78.9211 54.0327 78.7219 54.243 78.4675 54.3563C78.2132 54.4696 77.9245 54.4768 77.6649 54.3762C77.4053 54.2756 77.196 54.0754 77.083 53.8197C76.9701 53.5641 76.9626 53.2737 77.0623 53.0125C77.8122 51.0703 78.1981 49.0052 78.2005 46.9217C78.2001 46.7828 78.2269 46.6452 78.2795 46.5167C78.3321 46.3882 78.4093 46.2715 78.5069 46.1731C78.6044 46.0747 78.7202 45.9967 78.8478 45.9434C78.9754 45.8902 79.1122 45.8627 79.2503 45.8627C79.3884 45.8627 79.5252 45.8902 79.6527 45.9434C79.7803 45.9967 79.8962 46.0747 79.9937 46.1731C80.0912 46.2715 80.1685 46.3882 80.2211 46.5167C80.2736 46.6452 80.3005 46.7828 80.3001 46.9217ZM6.84965 59.3727C6.59285 59.3723 6.34508 59.2773 6.15322 59.1056C5.96137 58.9339 5.83872 58.6975 5.80849 58.441L5.08684 52.3156C5.05409 52.0375 5.13251 51.7577 5.30486 51.5378C5.47721 51.3178 5.72937 51.1758 6.00587 51.1428C6.28236 51.1099 6.56055 51.1887 6.77923 51.3621C6.9979 51.5354 7.13916 51.789 7.17191 52.0671L7.89357 58.1925C7.92631 58.4706 7.84788 58.7504 7.67554 58.9703C7.50321 59.1902 7.25107 59.3323 6.97459 59.3653C6.93312 59.3702 6.89141 59.3727 6.84965 59.3727ZM15.3653 69.7176C15.3653 69.9976 15.2547 70.2662 15.0578 70.4642C14.8609 70.6622 14.5939 70.7734 14.3155 70.7735C12.3718 70.7729 10.4958 70.0554 9.04276 68.757C7.58974 67.4585 6.66063 65.6692 6.43139 63.728C6.41518 63.5903 6.4261 63.4507 6.46351 63.3173C6.50093 63.1838 6.56412 63.0591 6.64946 62.9502C6.73481 62.8413 6.84065 62.7504 6.96093 62.6826C7.08122 62.6149 7.21359 62.5716 7.3505 62.5553C7.48741 62.539 7.62617 62.55 7.75885 62.5876C7.89154 62.6252 8.01556 62.6888 8.12383 62.7746C8.2321 62.8605 8.3225 62.9669 8.38987 63.0879C8.45723 63.2089 8.50025 63.342 8.51646 63.4797C8.6851 64.9075 9.36852 66.2236 10.4373 67.1786C11.506 68.1337 12.8859 68.6614 14.3156 68.6618C14.594 68.6618 14.861 68.7731 15.0578 68.9711C15.2547 69.1691 15.3653 69.4376 15.3653 69.7176Z" fill="#203D36"/>
</svg>
