<svg width="94" height="73" viewBox="0 0 94 73" fill="none" xmlns="http://www.w3.org/2000/svg">
<path d="M61.7989 39.818H75.8779C76.4471 39.818 76.9091 39.3933 76.9091 38.8699C76.9091 38.3466 76.4471 37.9219 75.8779 37.9219H61.7989C61.2296 37.9219 60.7677 38.3466 60.7677 38.8699C60.7677 39.3933 61.2296 39.818 61.7989 39.818Z" fill="#203D36"/>
<path d="M31.4494 39.818H53.0557C53.6439 39.818 54.1212 39.3933 54.1212 38.8699C54.1212 38.3466 53.6439 37.9219 53.0557 37.9219H31.4494C30.8612 37.9219 30.3839 38.3466 30.3839 38.8699C30.3839 39.3933 30.8612 39.818 31.4494 39.818Z" fill="#203D36"/>
<path d="M76.9091 46.4544C76.9091 45.9311 76.4438 45.5063 75.8706 45.5063H44.7152C44.142 45.5063 43.6768 45.9311 43.6768 46.4544C43.6768 46.9777 44.142 47.4025 44.7152 47.4025H75.8706C76.4438 47.4025 76.9091 46.9777 76.9091 46.4544Z" fill="#203D36"/>
<path d="M13.4003 47.4025H30.2765C30.8599 47.4025 31.3333 46.9777 31.3333 46.4544C31.3333 45.9311 30.8599 45.5063 30.2765 45.5063H13.4003C12.8169 45.5063 12.3434 45.9311 12.3434 46.4544C12.3434 46.9777 12.8169 47.4025 13.4003 47.4025Z" fill="#203D36"/>
<path d="M58.7746 53.0908H13.387C12.811 53.0908 12.3434 53.5155 12.3434 54.0389C12.3434 54.5622 12.811 54.9869 13.387 54.9869H58.7746C59.3507 54.9869 59.8182 54.5622 59.8182 54.0389C59.8182 53.5155 59.3507 53.0908 58.7746 53.0908Z" fill="#203D36"/>
<path d="M57.8485 60.6753H50.394C49.8308 60.6753 49.3737 61.1 49.3737 61.6233C49.3737 62.1467 49.8308 62.5714 50.394 62.5714H57.8485C58.4116 62.5714 58.8687 62.1467 58.8687 61.6233C58.8687 61.1 58.4116 60.6753 57.8485 60.6753Z" fill="#203D36"/>
<path d="M39.7933 60.6753H13.3784C12.8071 60.6753 12.3434 61.1 12.3434 61.6233C12.3434 62.1467 12.8071 62.5714 13.3784 62.5714H39.7933C40.3646 62.5714 40.8283 62.1467 40.8283 61.6233C40.8283 61.1 40.3646 60.6753 39.7933 60.6753Z" fill="#203D36"/>
<path d="M35.6946 4.11005C35.2902 3.69885 34.6208 3.68519 34.2009 4.07589C32.6437 5.51712 30.678 9.35036 34.4757 13.6289C34.4898 13.6412 35.8327 14.9021 35.8651 16.6302C35.8876 17.7859 35.3155 18.9389 34.1671 20.0564C33.7556 20.4566 33.7556 21.1055 34.1699 21.5058C34.3756 21.7053 34.6462 21.805 34.9153 21.805C35.1859 21.805 35.4578 21.7039 35.6636 21.5031C37.232 19.9772 38.0112 18.3256 37.9788 16.5934C37.9281 13.9828 36.0074 12.2123 35.9976 12.2123C32.7353 8.52797 35.3536 5.84771 35.6636 5.554C36.0821 5.1633 36.0962 4.51851 35.6946 4.11005Z" fill="#203D36"/>
<path d="M44.24 0.318571C43.8356 -0.0926093 43.1677 -0.107635 42.7463 0.28442C41.1892 1.7256 39.2234 5.55873 43.0211 9.83719C43.0352 9.84949 44.3781 11.1103 44.4105 12.8384C44.4331 13.9941 43.861 15.147 42.7125 16.2644C42.301 16.6647 42.301 17.3136 42.7153 17.7138C42.9211 17.9133 43.1916 18.013 43.4608 18.013C43.7313 18.013 44.0033 17.9119 44.209 17.7111C45.7774 16.1852 46.5567 14.5337 46.5243 12.8015C46.4735 10.191 44.5529 8.4206 44.543 8.4206C41.2808 4.73637 43.899 2.05619 44.209 1.76248C44.6275 1.37043 44.6416 0.725653 44.24 0.318571Z" fill="#203D36"/>
<path d="M51.8359 4.12733C51.4329 3.69451 50.7635 3.67869 50.3421 4.09138C48.7849 5.60841 46.8191 9.64329 50.6183 14.1469C50.6324 14.1599 51.9754 15.4871 52.0078 17.3061C52.0304 18.5226 51.4582 19.7362 50.3083 20.9125C49.8968 21.3338 49.8968 22.0168 50.3111 22.4381C50.5169 22.6481 50.7874 22.753 51.0566 22.753C51.3272 22.753 51.5991 22.6466 51.8049 22.4352C53.3734 20.8291 54.1527 19.0906 54.1203 17.2658C54.0709 14.5194 52.1487 12.6543 52.1389 12.6543C48.8793 8.77908 51.4935 5.95784 51.8049 5.6458C52.2234 5.23599 52.2375 4.55584 51.8359 4.12733Z" fill="#203D36"/>
<path d="M92.9694 64.9317H92.0587V59.9568C92.0587 59.3874 91.5957 58.9252 91.0253 58.9252H89.9961V53.9503C89.9961 53.3809 89.5331 52.9187 88.9627 52.9187H87.4016V32.8622C89.5331 32.3189 91.1217 30.4016 91.1217 28.106C91.1217 25.3909 88.909 23.1806 86.1878 23.1806H27.1746V22.8367C27.1746 22.2673 26.7117 21.8052 26.1413 21.8052H11.7183C11.4441 21.8052 11.181 21.9138 10.9881 22.1078C10.7952 22.3017 10.685 22.5644 10.685 22.8367V23.1806H4.93395C2.21415 23.1806 0 25.3895 0 28.106C0 30.4016 1.58724 32.3189 3.7201 32.8622V66.3525C3.7201 68.4817 5.29081 70.2147 7.21975 70.2147H62.3103V71.9684C62.3103 72.5378 62.7732 73 63.3436 73H92.9666C93.537 73 94 72.5378 94 71.9684V65.9619C94.0027 65.3939 93.5398 64.9317 92.9694 64.9317ZM66.3225 60.9884H67.3503H88.9627H89.9919V64.9317H66.3225V60.9884ZM87.9293 58.9252H68.3851V54.9819H86.3683H87.9293V58.9252ZM86.1878 25.2451C87.7681 25.2451 89.055 26.5284 89.055 28.1074C89.055 29.6864 87.7695 30.9697 86.1878 30.9697H27.1746V25.2465H86.1878V25.2451ZM12.753 23.8697H25.1093V24.2135V31.9999V37.4631H12.753V31.9999V24.2135V23.8697ZM2.0681 28.1074C2.0681 26.5298 3.3536 25.2451 4.93533 25.2451H10.6863V30.9683H4.93533C3.3536 30.9683 2.0681 29.685 2.0681 28.1074ZM7.22113 68.1516C6.43164 68.1516 5.7882 67.3456 5.7882 66.3525V33.0314H10.6863V38.4946C10.6863 39.064 11.1493 39.5262 11.7197 39.5262H26.1426C26.7131 39.5262 27.176 39.064 27.176 38.4946V33.0314H85.3363V52.9187H67.3517C66.7813 52.9187 66.3183 53.3809 66.3183 53.9503V58.9252H65.2905C64.7201 58.9252 64.2571 59.3874 64.2571 59.9568V64.9317H63.3464C62.776 64.9317 62.313 65.3939 62.313 65.9633V68.153L7.22113 68.1516ZM91.936 70.9368H64.3797V69.1832V66.9935H65.2905H91.0253H91.936V70.9368Z" fill="#203D36"/>
</svg>
