<svg width="11" height="6" viewBox="0 0 11 6" fill="none" xmlns="http://www.w3.org/2000/svg">
<path d="M0.403131 0.427368C0.496896 0.333632 0.62405 0.280975 0.756632 0.280975C0.889214 0.280975 1.01637 0.333632 1.11013 0.427368L5.25663 4.57387L9.40313 0.427368C9.49743 0.336289 9.62373 0.285892 9.75483 0.287031C9.88593 0.28817 10.0113 0.340755 10.104 0.433459C10.1967 0.526163 10.2493 0.65157 10.2505 0.782668C10.2516 0.913766 10.2012 1.04007 10.1101 1.13437L5.61013 5.63437C5.51637 5.7281 5.38921 5.78076 5.25663 5.78076C5.12405 5.78076 4.9969 5.7281 4.90313 5.63437L0.403131 1.13437C0.309396 1.04061 0.256739 0.913451 0.256739 0.780869C0.256739 0.648286 0.309396 0.521132 0.403131 0.427368Z" fill="#D4A288"/>
</svg>
