<svg width="12" height="9" viewBox="0 0 12 9" fill="none" xmlns="http://www.w3.org/2000/svg">
<path d="M11 5C11.2761 5 11.5 4.77614 11.5 4.5C11.5 4.22386 11.2761 4 11 4L11 5ZM0.146446 4.14645C-0.0488157 4.34171 -0.0488157 4.65829 0.146446 4.85355L3.32843 8.03553C3.52369 8.23079 3.84027 8.23079 4.03553 8.03553C4.2308 7.84027 4.2308 7.52369 4.03553 7.32843L1.20711 4.5L4.03553 1.67157C4.2308 1.47631 4.2308 1.15973 4.03553 0.964465C3.84027 0.769203 3.52369 0.769203 3.32843 0.964465L0.146446 4.14645ZM11 4L0.5 4L0.5 5L11 5L11 4Z" fill="#F7EFE8"/>
</svg>
