<svg width="10" height="6" viewBox="0 0 10 6" fill="none" xmlns="http://www.w3.org/2000/svg">
<path d="M9.84736 0.146606C9.75359 0.0528709 9.62644 0.000213623 9.49386 0.000213623C9.36127 0.000213623 9.23412 0.0528709 9.14036 0.146606L4.99386 4.29311L0.847356 0.146606C0.753055 0.0555274 0.626754 0.00513025 0.495655 0.00626945C0.364557 0.00740866 0.239151 0.0599935 0.146447 0.152698C0.0537427 0.245402 0.00115811 0.370808 1.89012e-05 0.501906C-0.00112031 0.633005 0.0492771 0.759306 0.140356 0.853607L4.64036 5.35361C4.73412 5.44734 4.86127 5.5 4.99386 5.5C5.12644 5.5 5.25359 5.44734 5.34736 5.35361L9.84736 0.853607C9.94109 0.759843 9.99375 0.632689 9.99375 0.500107C9.99375 0.367525 9.94109 0.24037 9.84736 0.146606Z" fill="#203D36"/>
</svg>
