<svg width="11" height="6" viewBox="0 0 11 6" fill="none" xmlns="http://www.w3.org/2000/svg">
<path d="M10.3537 0.646362C10.2599 0.552627 10.1328 0.499969 10.0002 0.499969C9.86762 0.499969 9.74047 0.552627 9.6467 0.646362L5.5002 4.79286L1.3537 0.646362C1.2594 0.555283 1.1331 0.504886 1.002 0.506025C0.870905 0.507164 0.745498 0.55975 0.652794 0.652453C0.56009 0.745157 0.507506 0.870564 0.506367 1.00166C0.505227 1.13276 0.555625 1.25906 0.646704 1.35336L5.1467 5.85336C5.24047 5.9471 5.36762 5.99976 5.5002 5.99976C5.63279 5.99976 5.75994 5.9471 5.8537 5.85336L10.3537 1.35336C10.4474 1.2596 10.5001 1.13244 10.5001 0.999863C10.5001 0.86728 10.4474 0.740126 10.3537 0.646362Z" fill="#F7EFE8"/>
</svg>
