<svg width="21" height="11" viewBox="0 0 21 11" fill="none" xmlns="http://www.w3.org/2000/svg">
<path d="M20.2015 0.286865C20.014 0.0993938 19.7597 -0.00592041 19.4945 -0.00592041C19.2294 -0.00592041 18.9751 0.0993938 18.7875 0.286865L10.4945 8.57987L2.20155 0.286865C2.01295 0.104707 1.76034 0.00391293 1.49815 0.00619125C1.23595 0.00846958 0.985138 0.11364 0.799729 0.299047C0.614321 0.484455 0.509152 0.735269 0.506874 0.997465C0.504595 1.25966 0.60539 1.51226 0.787548 1.70087L9.78755 10.7009C9.97508 10.8883 10.2294 10.9937 10.4945 10.9937C10.7597 10.9937 11.014 10.8883 11.2015 10.7009L20.2015 1.70087C20.389 1.51334 20.4943 1.25903 20.4943 0.993866C20.4943 0.728702 20.389 0.474393 20.2015 0.286865Z" fill="#203D36"/>
</svg>
