<svg width="21" height="11" viewBox="0 0 21 11" fill="none" xmlns="http://www.w3.org/2000/svg">
<path d="M20.2006 0.299558C20.013 0.112087 19.7587 0.00677238 19.4936 0.00677241C19.2284 0.00677245 18.9741 0.112087 18.7866 0.299558L10.4936 8.59256L2.20057 0.29956C2.01197 0.117402 1.75937 0.0166081 1.49717 0.0188864C1.23497 0.0211648 0.98416 0.126335 0.798752 0.311743C0.613343 0.49715 0.508174 0.747964 0.505896 1.01016C0.503617 1.27236 0.604412 1.52496 0.78657 1.71356L9.78657 10.7136C9.9741 10.901 10.2284 11.0063 10.4936 11.0063C10.7587 11.0063 11.013 10.901 11.2006 10.7136L20.2006 1.71356C20.388 1.52603 20.4934 1.27172 20.4934 1.00656C20.4934 0.741394 20.388 0.487086 20.2006 0.299558Z" fill="#D4A288"/>
</svg>
