<svg width="8" height="12" viewBox="0 0 8 12" fill="none" xmlns="http://www.w3.org/2000/svg">
<path d="M4.5 11.5C4.5 11.7761 4.27614 12 4 12C3.72386 12 3.5 11.7761 3.5 11.5L4.5 11.5ZM3.64645 0.646447C3.84171 0.451184 4.15829 0.451184 4.35355 0.646447L7.53553 3.82843C7.73079 4.02369 7.73079 4.34027 7.53553 4.53553C7.34027 4.7308 7.02369 4.7308 6.82843 4.53553L4 1.70711L1.17157 4.53553C0.976309 4.7308 0.659727 4.7308 0.464464 4.53553C0.269202 4.34027 0.269202 4.02369 0.464465 3.82843L3.64645 0.646447ZM3.5 11.5L3.5 1L4.5 1L4.5 11.5L3.5 11.5Z" fill="#203D36"/>
</svg>
