<svg aria-hidden="true" xmlns="http://www.w3.org/2000/svg" xmlns:xlink="http://www.w3.org/1999/xlink"><symbol viewBox="0 0 12 17" id="arrow" xmlns="http://www.w3.org/2000/svg">
<path d="M5.46967 0.469669C5.76256 0.176777 6.23744 0.176777 6.53033 0.469669L11.3033 5.24264C11.5962 5.53553 11.5962 6.01041 11.3033 6.3033C11.0104 6.59619 10.5355 6.59619 10.2426 6.3033L6 2.06066L1.75736 6.3033C1.46447 6.59619 0.989592 6.59619 0.696699 6.3033C0.403805 6.01041 0.403805 5.53553 0.696699 5.24264L5.46967 0.469669ZM5.25 17L5.25 1L6.75 1L6.75 17L5.25 17Z"/>
</symbol><symbol viewBox="0 0 28 28" id="chat" xmlns="http://www.w3.org/2000/svg">
<path d="M10 12.667H22V15.3337H10V12.667ZM22 7.33366H6.00002V10.0003H22V7.33366ZM27.3334 3.33366V27.3337L22 22.0003H3.33335C2.62611 22.0003 1.94783 21.7194 1.44774 21.2193C0.947638 20.7192 0.666687 20.0409 0.666687 19.3337V3.33366C0.666687 1.86699 1.86669 0.666992 3.33335 0.666992H24.6667C25.3739 0.666992 26.0522 0.947944 26.5523 1.44804C27.0524 1.94814 27.3334 2.62641 27.3334 3.33366ZM24.6667 3.33366H3.33335V19.3337H23.1067L24.6667 20.8937V3.33366Z"/>
</symbol><symbol viewBox="0 0 11 11" id="close" xmlns="http://www.w3.org/2000/svg">
<path d="M1 1L10.5 10.5" stroke-linecap="round"/>
<path d="M10.5 1L1 10.5" stroke-linecap="round"/>
</symbol><symbol viewBox="0 0 21 16" id="email" xmlns="http://www.w3.org/2000/svg">
<path d="M20.7997 13.4V2.60005C20.7997 1.60405 19.9957 0.800049 18.9997 0.800049H2.1877C1.1917 0.800049 0.387695 1.60405 0.387695 2.60005V13.4C0.387695 14.396 1.1917 15.2 2.1877 15.2H18.9997C19.9957 15.2 20.7997 14.396 20.7997 13.4ZM19.2277 2.46805C19.6237 2.86405 19.4077 3.27205 19.1917 3.47605L14.3197 7.94005L18.9997 12.812C19.1437 12.98 19.2397 13.244 19.0717 13.424C18.9157 13.616 18.5557 13.604 18.3997 13.484L13.1557 9.00805L10.5877 11.348L8.0317 9.00805L2.7877 13.484C2.6317 13.604 2.2717 13.616 2.1157 13.424C1.9477 13.244 2.0437 12.98 2.1877 12.812L6.8677 7.94005L1.9957 3.47605C1.7797 3.27205 1.5637 2.86405 1.9597 2.46805C2.3557 2.07205 2.7637 2.26405 3.0997 2.55205L10.5877 8.60005L18.0877 2.55205C18.4237 2.26405 18.8317 2.07205 19.2277 2.46805Z"/>
</symbol><symbol viewBox="0 0 11 20" id="facebook" xmlns="http://www.w3.org/2000/svg">
<path d="M10.4685 3.28098V0.0290867C10.4685 0.0290867 7.10961 0 6.8806 0C5.35972 0 3.18116 1.7103 3.18116 3.65329V7.13787H0.0336914V10.8319H3.13418V20H6.80426V10.7853H10.0516L10.4626 7.17278H6.84537V4.52007C6.84537 3.88598 7.32688 3.25771 8.05503 3.25771C8.54241 3.26353 10.4685 3.28098 10.4685 3.28098Z"/>
</symbol><symbol viewBox="0 0 21 20" id="instagram" xmlns="http://www.w3.org/2000/svg">
<path d="M10.0341 6.33203C8.01009 6.33203 6.36609 7.97603 6.36609 10C6.36609 12.024 8.01009 13.672 10.0341 13.672C12.0581 13.672 13.7061 12.024 13.7061 10C13.7061 7.97603 12.0581 6.33203 10.0341 6.33203Z"/>
<path d="M15.5697 0H4.49769C2.03769 0 0.0336914 2.004 0.0336914 4.464V15.536C0.0336914 18 2.03769 20 4.49769 20H15.5697C18.0337 20 20.0337 18 20.0337 15.536V4.464C20.0337 2.004 18.0337 0 15.5697 0ZM10.0337 16.48C6.46169 16.48 3.55369 13.572 3.55369 10C3.55369 6.428 6.46169 3.524 10.0337 3.524C13.6057 3.524 16.5137 6.428 16.5137 10C16.5137 13.572 13.6057 16.48 10.0337 16.48ZM16.6497 4.7C15.8937 4.7 15.2777 4.088 15.2777 3.332C15.2777 2.576 15.8937 1.96 16.6497 1.96C17.4057 1.96 18.0217 2.576 18.0217 3.332C18.0217 4.088 17.4057 4.7 16.6497 4.7Z"/>
</symbol><symbol viewBox="0 0 13 23" id="location" xmlns="http://www.w3.org/2000/svg">
<path d="M8.93262 15.2504C9.8059 15.5282 10.5531 15.9314 11.1068 16.4203L11.1311 16.4433C11.8004 17.0429 12.1903 17.7706 12.1903 18.5638C12.1903 19.6376 11.4765 20.5924 10.3226 21.2672C9.23277 21.9051 7.73692 22.2999 6.09482 22.2999C5.71599 22.2999 5.33994 22.2784 4.97294 22.2366C4.59689 22.1941 4.23407 22.1314 3.88935 22.0506C3.67138 21.9998 3.53558 21.7811 3.58642 21.5632C3.63726 21.3452 3.85592 21.2094 4.07389 21.2602C4.39075 21.3341 4.72154 21.3919 5.06208 21.4302C5.39147 21.4671 5.73758 21.4866 6.09552 21.4866C7.59555 21.4866 8.94446 21.1356 9.91384 20.5687C10.8185 20.0395 11.3784 19.3284 11.3784 18.5631C11.3784 18.0144 11.0893 17.4928 10.5935 17.0471L10.5705 17.0283C10.0559 16.5749 9.33444 16.2037 8.48136 15.9593C7.88594 16.8688 7.2007 17.818 6.41725 18.8075C6.39706 18.834 6.37338 18.8584 6.34622 18.88C6.17143 19.0179 5.91655 18.9886 5.77866 18.8131C4.99313 17.8215 4.30579 16.8695 3.71038 15.9593C3.42834 16.0401 3.16092 16.1348 2.91022 16.242C2.57804 16.3834 2.2772 16.545 2.01536 16.7232C1.83082 16.8486 1.57872 16.8005 1.45337 16.6153C1.32802 16.4308 1.37607 16.1787 1.56131 16.0533C1.87051 15.8437 2.21731 15.6564 2.59267 15.4962C2.80437 15.4057 3.02722 15.3235 3.25912 15.2497C0.419228 10.65 -0.0591933 7.13392 0.681768 4.72022C1.50421 2.04051 3.80091 0.699951 6.09622 0.699951C8.39153 0.699951 10.6875 2.03981 11.5107 4.72022C12.2516 7.13392 11.7732 10.6507 8.93332 15.2504H8.93262ZM2.92485 20.8918C3.13098 20.9782 3.22708 21.2157 3.14073 21.4218C3.05438 21.6279 2.81691 21.724 2.61077 21.6377C2.2584 21.4887 1.93319 21.3173 1.64279 21.1286C1.34682 20.9357 1.08289 20.7226 0.860741 20.4949C0.704749 20.3347 0.708231 20.0778 0.868401 19.9225C1.02857 19.7665 1.28554 19.77 1.44084 19.9301C1.6219 20.1161 1.83848 20.2902 2.08291 20.4496C2.335 20.6133 2.61774 20.7623 2.92415 20.8918H2.92485ZM0.877454 19.0185C0.939433 19.233 0.816172 19.458 0.601683 19.52C0.387194 19.5819 0.16226 19.4587 0.100281 19.2442C0.0675502 19.1314 0.0417837 19.0179 0.0257667 18.9064C0.00905329 18.7901 0 18.6759 0 18.5638C0 18.2901 0.0480511 18.0206 0.139278 17.7595C0.230506 17.4976 0.365606 17.2476 0.537615 17.0122C0.669929 16.8319 0.923416 16.7929 1.10378 16.9252C1.28415 17.0575 1.32315 17.311 1.19083 17.4914C1.06478 17.6634 0.967289 17.8423 0.903221 18.0255C0.843331 18.1968 0.811994 18.3779 0.811994 18.5631C0.811994 18.6439 0.817564 18.7205 0.827314 18.7915C0.838456 18.8695 0.85517 18.9461 0.876061 19.0179L0.877454 19.0185ZM6.09552 3.30167C5.24871 3.30167 4.48198 3.64499 3.92696 4.20002C3.37193 4.75504 3.02861 5.52177 3.02861 6.36858C3.02861 7.20356 3.36357 7.96123 3.90606 8.51486L3.92696 8.53715C4.48198 9.09217 5.2494 9.4355 6.09552 9.4355C6.94024 9.4355 7.70628 9.09217 8.26269 8.53645C8.81911 7.97934 9.16243 7.21331 9.16243 6.36858C9.16243 5.52247 8.81911 4.75504 8.26269 4.20002C7.70767 3.64499 6.94094 3.30167 6.09552 3.30167Z"/>
</symbol><symbol viewBox="0 0 18 18" id="phone" xmlns="http://www.w3.org/2000/svg">
<path d="M3.62 7.79C5.06 10.62 7.38 12.93 10.21 14.38L12.41 12.18C12.68 11.91 13.08 11.82 13.43 11.94C14.55 12.31 15.76 12.51 17 12.51C17.55 12.51 18 12.96 18 13.51V17C18 17.55 17.55 18 17 18C7.61 18 0 10.39 0 1C0 0.45 0.45 0 1 0H4.5C5.05 0 5.5 0.45 5.5 1C5.5 2.25 5.7 3.45 6.07 4.57C6.18 4.92 6.1 5.31 5.82 5.59L3.62 7.79Z"/>
</symbol><symbol viewBox="0 0 22 18" id="telegram" xmlns="http://www.w3.org/2000/svg">
<path d="M19.7433 0.154495C19.7433 0.154495 21.686 -0.603005 21.5241 1.23664C21.4701 1.99415 20.9845 4.6454 20.6067 7.5131L19.3116 16.0079C19.3116 16.0079 19.2037 17.2524 18.2324 17.4688C17.261 17.6852 15.8041 16.7113 15.5342 16.4949C15.3184 16.3326 11.4871 13.8977 10.138 12.7074C9.76024 12.3827 9.32854 11.7334 10.1919 10.976L15.858 5.56525C16.5056 4.91595 17.1531 3.40095 14.455 5.2406L6.90024 10.3808C6.90024 10.3808 6.03684 10.9219 4.41799 10.4349L0.910402 9.35275C0.910402 9.35275 -0.384703 8.54115 1.82777 7.7295C7.22404 5.18645 13.8614 2.5893 19.7433 0.154495Z"/>
</symbol></svg>