<svg width="28" height="28" viewBox="0 0 28 28" fill="none" xmlns="http://www.w3.org/2000/svg">
<path d="M10 12.667H22V15.3337H10V12.667ZM22 7.33366H6.00002V10.0003H22V7.33366ZM27.3334 3.33366V27.3337L22 22.0003H3.33335C2.62611 22.0003 1.94783 21.7194 1.44774 21.2193C0.947638 20.7192 0.666687 20.0409 0.666687 19.3337V3.33366C0.666687 1.86699 1.86669 0.666992 3.33335 0.666992H24.6667C25.3739 0.666992 26.0522 0.947944 26.5523 1.44804C27.0524 1.94814 27.3334 2.62641 27.3334 3.33366ZM24.6667 3.33366H3.33335V19.3337H23.1067L24.6667 20.8937V3.33366Z" fill="#203D36"/>
</svg>
