<svg width="19" height="19" viewBox="0 0 19 19" fill="none" xmlns="http://www.w3.org/2000/svg">
<path d="M3.87 8.43062C5.31 11.2606 7.63 13.5706 10.46 15.0206L12.66 12.8206C12.93 12.5506 13.33 12.4606 13.68 12.5806C14.8 12.9506 16.01 13.1506 17.25 13.1506C17.8 13.1506 18.25 13.6006 18.25 14.1506V17.6406C18.25 18.1906 17.8 18.6406 17.25 18.6406C7.86 18.6406 0.25 11.0306 0.25 1.64062C0.25 1.09062 0.7 0.640625 1.25 0.640625H4.75C5.3 0.640625 5.75 1.09062 5.75 1.64062C5.75 2.89062 5.95 4.09063 6.32 5.21063C6.43 5.56063 6.35 5.95062 6.07 6.23063L3.87 8.43062Z" fill="#F7EFE8"/>
</svg>
