<svg width="22" height="19" viewBox="0 0 22 19" fill="none" xmlns="http://www.w3.org/2000/svg">
<path d="M19.9597 0.79512C19.9597 0.79512 21.9023 0.0376201 21.7404 1.87727C21.6865 2.63478 21.2008 5.28602 20.823 8.15372L19.528 16.6486C19.528 16.6486 19.42 17.893 18.4487 18.1095C17.4774 18.3259 16.0204 17.352 15.7505 17.1355C15.5347 16.9732 11.7034 14.5384 10.3543 13.348C9.97655 13.0234 9.54485 12.3741 10.4082 11.6166L16.0744 6.20588C16.7219 5.55658 17.3694 4.04157 14.6713 5.88122L7.11655 11.0214C7.11655 11.0214 6.25315 11.5625 4.6343 11.0755L1.12671 9.99337C1.12671 9.99337 -0.168395 9.18178 2.04408 8.37012C7.44035 5.82708 14.0778 3.22993 19.9597 0.79512Z" fill="#F7EFE8"/>
</svg>
