<?xml version="1.0" encoding="utf-8"?>
<!-- Generator: Adobe Illustrator 26.0.1, SVG Export Plug-In . SVG Version: 6.00 Build 0)  -->
<svg version="1.1" id="Слой_1" xmlns="http://www.w3.org/2000/svg" xmlns:xlink="http://www.w3.org/1999/xlink" x="0px" y="0px"
	 viewBox="0 0 460.7 553.1" style="enable-background:new 0 0 460.7 553.1;" xml:space="preserve">
<style type="text/css">
	.st0{fill:#203D36;}
	.st1{clip-path:url(#SVGID_00000000200750380572428980000015473096055190348938_);}
	.st2{fill:none;stroke:#203D36;stroke-width:7.5335;stroke-miterlimit:10;}
</style>
<g>
	<g>
		<polygon class="st0" points="337.7,518.9 367.9,437.6 387.1,437.6 417.1,518.9 413.2,518.9 396.9,476 390.4,478.3 383,462 
			367.9,496.9 351.6,496.9 341.1,518.9 		"/>
		<path class="st0" d="M111.8,437.6v14.5H88.5v66.8H70.7v-66.8H47.2v-14.5H111.8z"/>
		<path class="st0" d="M187.6,437.6l-25.9,46.6c-0.2,0.4-0.3,0.9-0.3,1.3v33.4h-19.5v-33.5c0-0.4-0.1-0.8-0.3-1.1l-24.8-46.7h18.2
			l17.1,33.9l17-33.9H187.6z"/>
		<path class="st0" d="M250.9,462c-5.4,0-10.8,0-16.1,0c-1.3-4.3-4.9-7.7-9.1-9.2c-4.2-1.4-9-1-13.1,0.9c-2.5,1.2-5,3.2-5.2,5.9
			c-0.2,1.9,0.8,3.8,2.1,5.1c1.4,1.3,3.2,2.1,5,2.7c8.3,2.8,17.8,1.6,25.6,5.7c7.1,3.7,11.6,11.5,11.7,19.5
			c0.1,8-4.1,15.8-10.6,20.4c-7.5,5.4-17.4,6.4-26.6,5.5c-7.1-0.7-14.5-2.7-19.2-8c-4.3-4.8-5.7-11.4-6-17.8c5.7,0,11.5,0,17.2,0
			c0.8,3.1,1.6,6.5,4,8.6c1.7,1.5,4,2.2,6.3,2.6c3.7,0.6,7.6,0.5,11.3-0.4c2-0.5,4-1.2,5.6-2.6s2.7-3.4,2.5-5.5
			c-0.3-3.6-4.1-5.7-7.5-6.8c-6.7-2.3-13.9-3.1-20.7-5.1c-4.6-1.4-9.1-3.4-12.3-6.9c-3.5-4-4.9-9.5-4.6-14.8
			c0.3-5.9,2.7-11.6,6.6-16c4.2-4.6,10.5-6.8,16.6-7.7c5.6-0.9,11.5-0.5,16.9,1.4C241.4,443,249.4,451.7,250.9,462
			C251,462,250.9,462,250.9,462z"/>
		<path class="st0" d="M329.5,437.6v81.3h-16.9v-35.6h-30.6v35.6H265v-81.3h16.9v31.4h30.6v-31.4H329.5z"/>
	</g>
	<g>
		<g>
			<defs>
				<ellipse id="SVGID_1_" cx="232.2" cy="217.4" rx="179.2" ry="181"/>
			</defs>
			<clipPath id="SVGID_00000103258123209643738900000003538443250307873154_">
				<use xlink:href="#SVGID_1_"  style="overflow:visible;"/>
			</clipPath>
			<g style="clip-path:url(#SVGID_00000103258123209643738900000003538443250307873154_);">
				<line class="st2" x1="203.7" y1="29.8" x2="165.1" y2="127.7"/>
				<line class="st2" x1="103.7" y1="63.8" x2="314.9" y2="278.2"/>
				<line class="st2" x1="232.1" y1="195.6" x2="146" y2="277.3"/>
				<line class="st2" x1="151.3" y1="46.6" x2="149.6" y2="110.8"/>
				<line class="st2" x1="78.4" y1="116.4" x2="152.8" y2="113.6"/>
				<line class="st2" x1="86.9" y1="100.4" x2="107.6" y2="115.5"/>
				<line class="st2" x1="80.3" y1="137.8" x2="106.7" y2="114.7"/>
				<line class="st2" x1="53" y1="164.4" x2="177.3" y2="139"/>
				<line class="st2" x1="56.8" y1="187" x2="116.1" y2="151.2"/>
				<line class="st2" x1="124.7" y1="149.1" x2="113.1" y2="190.1"/>
				<line class="st2" x1="146.2" y1="169.1" x2="146.2" y2="390.4"/>
				<rect x="182.5" y="286.4" class="st2" width="27.3" height="42.4"/>
				<rect x="251.2" y="286.4" class="st2" width="27.3" height="42.4"/>
				<line class="st2" x1="314.8" y1="29.8" x2="314.8" y2="387.6"/>
				<line class="st2" x1="213.1" y1="31.6" x2="314.8" y2="173.8"/>
				<line class="st2" x1="279" y1="36.4" x2="314.8" y2="94.7"/>
				<line class="st2" x1="345.9" y1="68.4" x2="314.8" y2="106"/>
				<line class="st2" x1="253.6" y1="31.6" x2="261.1" y2="98.5"/>
				<line class="st2" x1="189.5" y1="124.9" x2="280.9" y2="126.8"/>
				<line class="st2" x1="275.6" y1="148.3" x2="272.5" y2="179.9"/>
				<line class="st2" x1="240.8" y1="149" x2="315.3" y2="221.5"/>
				<line class="st2" x1="314.8" y1="141.8" x2="367.5" y2="89.1"/>
				<line class="st2" x1="314.8" y1="217.2" x2="409.9" y2="114.5"/>
				<line class="st2" x1="380.7" y1="109.8" x2="380.7" y2="145.6"/>
				<line class="st2" x1="357.3" y1="170.7" x2="420.1" y2="190.2"/>
				<line class="st2" x1="380.7" y1="177.6" x2="409" y2="160.7"/>
				<line class="st2" x1="357.8" y1="207.7" x2="360" y2="287.8"/>
				<line class="st2" x1="314.8" y1="313.2" x2="429.7" y2="247.3"/>
				<line class="st2" x1="359" y1="243.5" x2="415.5" y2="197.4"/>
				<line class="st2" x1="373.2" y1="232.2" x2="402.4" y2="236"/>
				<line class="st2" x1="332.7" y1="237.9" x2="359" y2="258.6"/>
				<g>
				</g>
				<line class="st2" x1="146.2" y1="219" x2="182" y2="183.3"/>
				<line class="st2" x1="109.5" y1="213.4" x2="146.2" y2="239.8"/>
				<line class="st2" x1="42.5" y1="216.8" x2="146.4" y2="276.8"/>
				<line class="st2" x1="55.8" y1="262.4" x2="84.1" y2="239.8"/>
				<line class="st2" x1="62.1" y1="304.4" x2="112.9" y2="256.2"/>
				<line class="st2" x1="326.1" y1="306.6" x2="397.7" y2="320.7"/>
				<line class="st2" x1="349.9" y1="310.7" x2="379.5" y2="353.3"/>
				<line class="st2" x1="238.5" y1="125.8" x2="176.4" y2="43.9"/>
			</g>
		</g>
	</g>
	<line class="st2" x1="146.2" y1="337.9" x2="125.4" y2="322.7"/>
</g>
</svg>
