<?xml version="1.0" encoding="utf-8"?>
<!-- Generator: Adobe Illustrator 26.0.1, SVG Export Plug-In . SVG Version: 6.00 Build 0)  -->
<svg version="1.1" id="Слой_1" xmlns="http://www.w3.org/2000/svg" xmlns:xlink="http://www.w3.org/1999/xlink" x="0px" y="0px"
	 viewBox="0 0 396.2 477.1" style="enable-background:new 0 0 396.2 477.1;" xml:space="preserve">
<style type="text/css">
	.st0{fill:#F7EFE8;}
	.st1{clip-path:url(#SVGID_00000045587082456549970530000007849517447673979551_);}
	.st2{fill:none;stroke:#F7EFE8;stroke-width:6.4317;stroke-miterlimit:10;}
</style>
<g>
	<g>
		<polygon class="st0" points="298.7,444.6 324.4,375.2 340.9,375.2 366.4,444.6 363.1,444.6 349.2,407.9 343.7,409.9 337.3,396 
			324.4,425.7 310.6,425.7 301.6,444.6 		"/>
		<path class="st0" d="M105.8,375.2v12.3H85.9v57.1H70.7v-57.1h-20v-12.3H105.8z"/>
		<path class="st0" d="M170.5,375.2L148.3,415c-0.2,0.3-0.3,0.7-0.3,1.1v28.5h-16.7V416c0-0.3-0.1-0.7-0.2-1l-21.2-39.9h15.5
			l14.6,29l14.5-29H170.5z"/>
		<path class="st0" d="M224.6,396c-4.6,0-9.2,0-13.8,0c-1.1-3.7-4.2-6.6-7.8-7.8c-3.6-1.2-7.7-0.8-11.1,0.8c-2.1,1-4.2,2.7-4.5,5.1
			c-0.2,1.6,0.7,3.2,1.8,4.3c1.2,1.1,2.7,1.8,4.2,2.3c7.1,2.4,15.2,1.4,21.9,4.8c6,3.1,9.9,9.8,10,16.6c0.1,6.8-3.5,13.5-9,17.4
			c-6.4,4.6-14.8,5.5-22.7,4.7c-6-0.6-12.4-2.3-16.4-6.8c-3.6-4.1-4.8-9.8-5.1-15.2c4.9,0,9.8,0,14.7,0c0.6,2.7,1.4,5.5,3.4,7.4
			c1.5,1.3,3.5,1.9,5.4,2.2c3.2,0.5,6.5,0.4,9.6-0.4c1.7-0.4,3.4-1.1,4.8-2.2c1.4-1.2,2.3-2.9,2.1-4.7c-0.3-3-3.5-4.9-6.4-5.8
			c-5.7-1.9-11.8-2.6-17.6-4.3c-3.9-1.2-7.8-2.9-10.5-5.9c-3-3.4-4.2-8.1-3.9-12.6c0.3-5,2.3-9.9,5.7-13.7c3.6-3.9,9-5.8,14.1-6.6
			c4.8-0.8,9.8-0.4,14.4,1.2C216.4,379.7,223.2,387.2,224.6,396C224.6,396,224.6,396,224.6,396z"/>
		<path class="st0" d="M291.7,375.2v69.4h-14.5v-30.4H251v30.4h-14.5v-69.4H251V402h26.2v-26.8H291.7z"/>
	</g>
	<g>
		<g>
			<defs>
				<ellipse id="SVGID_1_" cx="208.5" cy="187.1" rx="153" ry="154.6"/>
			</defs>
			<clipPath id="SVGID_00000138550129977946228860000010295664735641240489_">
				<use xlink:href="#SVGID_1_"  style="overflow:visible;"/>
			</clipPath>
			<g style="clip-path:url(#SVGID_00000138550129977946228860000010295664735641240489_);">
				<line class="st2" x1="184.2" y1="26.9" x2="151.3" y2="110.6"/>
				<line class="st2" x1="98.9" y1="56" x2="279.2" y2="239"/>
				<line class="st2" x1="208.5" y1="168.5" x2="135" y2="238.3"/>
				<line class="st2" x1="139.5" y1="41.4" x2="138" y2="96.1"/>
				<line class="st2" x1="77.3" y1="100.9" x2="140.8" y2="98.5"/>
				<line class="st2" x1="84.5" y1="87.2" x2="102.2" y2="100.1"/>
				<line class="st2" x1="78.9" y1="119.2" x2="101.4" y2="99.5"/>
				<line class="st2" x1="55.6" y1="141.9" x2="161.7" y2="120.2"/>
				<line class="st2" x1="58.8" y1="161.2" x2="109.5" y2="130.7"/>
				<line class="st2" x1="116.8" y1="128.8" x2="106.9" y2="163.8"/>
				<line class="st2" x1="135.2" y1="145.9" x2="135.2" y2="334.9"/>
				<rect x="166.1" y="246" class="st2" width="23.3" height="36.2"/>
				<rect x="224.8" y="246" class="st2" width="23.3" height="36.2"/>
				<line class="st2" x1="279.1" y1="26.9" x2="279.1" y2="332.4"/>
				<line class="st2" x1="192.3" y1="28.5" x2="279.1" y2="149.9"/>
				<line class="st2" x1="248.5" y1="32.6" x2="279.1" y2="82.4"/>
				<line class="st2" x1="305.6" y1="59.9" x2="279.1" y2="92.1"/>
				<line class="st2" x1="226.8" y1="28.5" x2="233.3" y2="85.6"/>
				<line class="st2" x1="172.2" y1="108.1" x2="250.1" y2="109.7"/>
				<line class="st2" x1="245.6" y1="128.1" x2="243" y2="155.1"/>
				<line class="st2" x1="215.9" y1="128.7" x2="279.6" y2="190.6"/>
				<line class="st2" x1="279.1" y1="122.6" x2="324.1" y2="77.6"/>
				<line class="st2" x1="279.1" y1="186.9" x2="360.3" y2="99.3"/>
				<line class="st2" x1="335.4" y1="95.3" x2="335.4" y2="125.8"/>
				<line class="st2" x1="315.4" y1="147.2" x2="369" y2="163.9"/>
				<line class="st2" x1="335.4" y1="153.2" x2="359.5" y2="138.7"/>
				<line class="st2" x1="315.8" y1="178.9" x2="317.7" y2="247.2"/>
				<line class="st2" x1="279.1" y1="268.9" x2="377.2" y2="212.7"/>
				<line class="st2" x1="316.9" y1="209.4" x2="365.1" y2="170"/>
				<line class="st2" x1="328.9" y1="199.8" x2="353.9" y2="203"/>
				<line class="st2" x1="294.4" y1="204.6" x2="316.9" y2="222.3"/>
				<g>
				</g>
				<line class="st2" x1="135.2" y1="188.5" x2="165.7" y2="158"/>
				<line class="st2" x1="103.8" y1="183.7" x2="135.2" y2="206.2"/>
				<line class="st2" x1="46.6" y1="186.6" x2="135.3" y2="237.9"/>
				<line class="st2" x1="58" y1="225.5" x2="82.1" y2="206.2"/>
				<line class="st2" x1="63.4" y1="261.4" x2="106.8" y2="220.3"/>
				<line class="st2" x1="288.7" y1="263.3" x2="349.8" y2="275.4"/>
				<line class="st2" x1="309" y1="266.8" x2="334.4" y2="303.2"/>
				<line class="st2" x1="214" y1="108.9" x2="160.9" y2="39"/>
			</g>
		</g>
	</g>
	<line class="st2" x1="135.2" y1="290" x2="117.4" y2="277.1"/>
</g>
</svg>
