<svg width="166" height="24" viewBox="0 0 166 24" fill="none" xmlns="http://www.w3.org/2000/svg">
<path d="M0.0347701 12.0645C0.0347701 23.4279 11.989 24 14.4135 24C17.2674 24 19.5288 23.7295 21.2592 23.3785C24.3176 22.7571 25.7192 21.8859 25.8061 21.8313C25.9091 21.7767 26.0067 21.7143 26.099 21.6467C26.313 21.4855 26.4948 21.2853 26.6299 21.0564C26.8251 20.7262 26.9214 20.3517 26.9094 19.9748V12.1321C26.9094 11.7784 26.7649 11.4404 26.5082 11.1908C26.2514 10.9411 25.9025 10.8007 25.54 10.8007H15.5971C15.4246 10.8033 15.2534 10.8397 15.0956 10.9099C15.006 10.9489 14.9217 10.9983 14.8442 11.0555C14.7853 11.0997 14.7305 11.1491 14.6797 11.2038C14.5633 11.3286 14.4737 11.4742 14.4189 11.6354C14.3641 11.794 14.3427 11.9631 14.3587 12.1321V12.9434C14.344 13.1124 14.3654 13.2814 14.4216 13.44C14.4443 13.5051 14.4724 13.5675 14.5045 13.6273C14.5526 13.7131 14.6128 13.7963 14.681 13.8691C14.7974 13.9939 14.9391 14.0953 15.0969 14.1655C15.1932 14.2097 15.2935 14.2409 15.3979 14.2591C15.4634 14.2695 15.5302 14.2748 15.5971 14.2748H21.3556C21.5067 14.2748 21.6538 14.306 21.7875 14.3684C21.8931 14.4178 21.9895 14.4828 22.0723 14.5634C22.2623 14.748 22.3693 15.0003 22.3693 15.2603V18.9163C21.8677 19.1166 20.5745 19.5144 18.9297 19.8135C16.8488 20.1931 14.2036 20.4116 11.8793 19.8732C5.83335 18.4691 5.36128 13.6169 5.36128 12.1659C5.36128 10.9463 5.7384 4.84333 13.1605 4.22445C16.6068 3.8604 20.0877 4.50529 23.1568 6.07329C23.3161 6.15911 23.4925 6.21111 23.6744 6.22411C23.768 6.23191 23.8617 6.2293 23.954 6.21891C24.0408 6.20851 24.1264 6.19031 24.2094 6.1617C24.3244 6.1227 24.434 6.06808 24.533 6.00048C24.5824 5.96668 24.6293 5.93028 24.6734 5.89126C24.7255 5.84447 24.7737 5.79246 24.8178 5.73784C24.8846 5.65204 24.9409 5.56103 24.985 5.46222L25.7312 3.98262C25.8155 3.83441 25.8689 3.67059 25.8877 3.50155C25.9051 3.33253 25.8877 3.16351 25.8356 2.9997C25.7847 2.83848 25.6991 2.68765 25.5855 2.55764C25.5119 2.47443 25.4277 2.39902 25.3354 2.33661C25.2846 2.3028 25.2311 2.2716 25.1762 2.2456C21.8023 0.7036 18.1072 -0.0634977 14.3788 0.00411106C0.431952 0.00411106 0 10.8345 0 12.0645H0.0347701Z" fill="#203D36"/>
<path d="M104.718 13.6013C104.404 14.1551 103.882 14.1551 103.575 13.6013L96.7826 1.4811C96.6287 1.16906 96.3868 0.906428 96.0845 0.724404C95.7823 0.54498 95.4332 0.448769 95.0775 0.453969H91.4013C91.2153 0.45657 91.0334 0.500775 90.8704 0.581385C90.7606 0.635993 90.659 0.706202 90.5694 0.792012C90.3501 1.00784 90.2244 1.29648 90.2231 1.60071V22.6557C90.2204 22.7285 90.2244 22.8012 90.2365 22.8741L90.2659 22.9911L90.3006 23.09C90.3327 23.1653 90.3728 23.2382 90.4223 23.3031C90.4624 23.3577 90.5079 23.4097 90.5587 23.454C90.6698 23.5554 90.8035 23.6307 90.9492 23.6775C91.0949 23.7243 91.2488 23.7374 91.4013 23.7218H93.6947C93.8378 23.7348 93.9836 23.7165 94.12 23.6724C94.1842 23.6516 94.2457 23.6256 94.3046 23.5917C94.3714 23.5554 94.4329 23.5112 94.489 23.4618C94.5948 23.3655 94.6804 23.2511 94.7379 23.1237C94.7726 23.0457 94.7967 22.965 94.8101 22.8792C94.8193 22.8246 94.8247 22.77 94.8247 22.7154C94.8247 22.4294 94.8247 7.40466 94.8582 7.40466C94.893 7.40466 103.314 22.7154 103.314 22.7154C103.377 22.8402 103.475 22.9469 103.595 23.0196C103.716 23.0951 103.857 23.1341 103.999 23.1341C104.067 23.1341 104.134 23.1263 104.198 23.1081C104.27 23.09 104.34 23.0588 104.404 23.0196C104.524 22.9469 104.622 22.8402 104.683 22.7154L110.208 12.7926C111.846 9.85418 113.214 7.40466 113.222 7.40466C113.229 7.40466 113.231 9.37572 113.231 11.9032L113.222 22.6764L113.226 22.77L113.237 22.8402C113.253 22.926 113.278 23.0093 113.314 23.0873C113.375 23.2148 113.462 23.3318 113.57 23.4279C113.677 23.5215 113.805 23.5944 113.943 23.6385C114.081 23.6828 114.228 23.7009 114.372 23.688H117.008C117.169 23.7036 117.329 23.6853 117.482 23.6334C117.633 23.5814 117.769 23.4981 117.883 23.3864C117.996 23.2772 118.082 23.1419 118.134 22.9962C118.164 22.9157 118.181 22.8351 118.189 22.7519C118.196 22.6817 118.194 22.6088 118.186 22.536V1.60071C118.186 1.4421 118.153 1.28868 118.09 1.14566C118.031 1.01564 117.947 0.893426 117.841 0.789413C117.621 0.576185 117.321 0.453969 117.008 0.453969H113.476C113.117 0.443568 112.761 0.529379 112.449 0.706202C112.282 0.799814 112.131 0.916829 112.002 1.05465C111.89 1.17166 111.794 1.30428 111.716 1.4473L104.718 13.6013Z" fill="#203D36"/>
<path d="M161.35 0.454024C161.203 0.443623 161.057 0.461826 160.917 0.506031C160.831 0.532035 160.749 0.571039 160.673 0.620446C160.626 0.64905 160.58 0.682854 160.539 0.719259L160.48 0.773865C160.397 0.857076 160.328 0.953289 160.279 1.0599C160.218 1.18992 160.184 1.33034 160.179 1.47336V14.9613C160.179 15.5932 159.81 15.7388 159.358 15.2864L145.493 1.27313C145.235 1.0131 144.923 0.805069 144.579 0.664651C144.236 0.524233 143.867 0.451423 143.494 0.454024H140.878C140.055 0.454024 139.7 0.880479 139.7 1.31473V22.8742C139.713 22.999 139.75 23.1185 139.811 23.2277C139.844 23.2876 139.884 23.3447 139.93 23.3968C139.967 23.441 140.009 23.48 140.054 23.5138C140.087 23.5399 140.122 23.5633 140.158 23.584C140.229 23.6282 140.308 23.662 140.39 23.6854C140.513 23.7218 140.641 23.7349 140.768 23.7218H143.384C144.034 23.7218 144.486 23.3734 144.486 22.7962V8.59046C144.486 7.92478 144.856 7.81037 145.3 8.27063L159.789 22.9157C160.044 23.1836 160.356 23.3968 160.703 23.5372C161.051 23.6776 161.426 23.7427 161.802 23.7271H163.767C164.08 23.7244 164.38 23.6048 164.6 23.389C164.821 23.1731 164.946 22.8793 164.946 22.5751V1.60077C164.943 1.29653 164.818 1.00789 164.598 0.792067C164.377 0.578841 164.079 0.456625 163.767 0.454024H161.35Z" fill="#203D36"/>
<path fill-rule="evenodd" clip-rule="evenodd" d="M78.2822 14.8546C78.2327 14.7974 78.1912 14.735 78.1605 14.67C78.1337 14.6128 78.1138 14.553 78.1016 14.4932C78.0749 14.3606 78.0856 14.2228 78.1311 14.0953C78.1779 13.9653 78.2569 13.8509 78.3625 13.7625C78.4199 13.7157 78.4842 13.6767 78.5524 13.6455C78.6099 13.6195 78.6714 13.6013 78.7343 13.5883C80.0461 13.2138 81.2831 12.6209 82.3904 11.8383C83.0015 11.2636 83.4777 10.5641 83.7839 9.79179C84.0902 9.01948 84.22 8.18998 84.1637 7.36567C84.1878 6.61678 84.0888 5.87047 83.8721 5.15539C83.7679 4.81215 83.6368 4.47409 83.4789 4.14906C83.0297 3.28575 82.3543 2.55505 81.5212 2.02719C80.5878 1.44731 79.5514 1.04166 78.4668 0.828427C77.5468 0.659406 76.6145 0.552792 75.6799 0.508587C75.2773 0.487783 74.7157 0.472182 74.194 0.461781L73.3248 0.453979H61.4455C61.3292 0.453979 61.214 0.472182 61.1045 0.503386C60.9186 0.557992 60.7488 0.656805 60.6097 0.789423C60.3877 1.00525 60.262 1.29649 60.2606 1.60072V22.7154C60.2632 22.8611 60.2967 23.0015 60.3596 23.1341C60.3836 23.1861 60.4103 23.2355 60.4425 23.2797C60.48 23.3343 60.5241 23.3889 60.5736 23.4357L60.6203 23.48C60.73 23.5788 60.8598 23.6516 61.0001 23.6984C61.0711 23.7218 61.1446 23.7399 61.2194 23.7504C61.2917 23.7582 61.3653 23.7582 61.4388 23.753H64.2525C64.4009 23.766 64.5506 23.7477 64.6911 23.7009C64.8328 23.6541 64.9626 23.5814 65.0723 23.4825C65.1204 23.441 65.1645 23.3942 65.2047 23.3447C65.2555 23.2797 65.2983 23.2095 65.333 23.1341C65.3946 23.004 65.428 22.8611 65.4306 22.7154V14.3346H70.7572C71.1183 14.3528 71.4713 14.4464 71.7922 14.6102C72.1132 14.7714 72.3954 14.9977 72.6201 15.2733L78.1511 22.848C78.1994 22.926 78.2529 23.0015 78.3116 23.0717C78.4614 23.2538 78.6447 23.4071 78.8519 23.5242C78.9309 23.5683 79.0111 23.6073 79.0953 23.6412C79.1488 23.6619 79.2023 23.6802 79.2572 23.6958C79.4324 23.7504 79.6156 23.7789 79.8014 23.7816H83.4789C83.5913 23.7894 83.7037 23.7686 83.8027 23.7165C83.903 23.6646 83.9859 23.5866 84.0407 23.493C84.0581 23.4644 84.0729 23.4332 84.0848 23.402C84.1102 23.3291 84.121 23.2538 84.117 23.1783C84.1102 23.0691 84.0715 22.965 84.006 22.8741C83.7799 22.5698 78.2609 14.8858 78.2609 14.8858L78.2822 14.8546ZM76.0435 10.5745C75.534 10.6811 75.0165 10.7461 74.495 10.7721C73.8451 10.7721 72.7832 10.8189 72.1333 10.8189H66.6556C66.3427 10.8189 66.0431 10.6993 65.8225 10.4835C65.6018 10.2702 65.4775 9.979 65.4775 9.67477V5.40762C65.4775 5.31921 65.4882 5.2308 65.5082 5.14759C65.523 5.08258 65.5443 5.02017 65.5697 4.96036C65.6286 4.82775 65.7142 4.70293 65.8225 4.59891C66.0431 4.38309 66.3427 4.26348 66.6556 4.26348H72.1333C72.7832 4.26348 73.8451 4.26348 74.495 4.31028C74.7249 4.32067 74.955 4.33888 75.1851 4.36488C75.4725 4.39869 75.7587 4.4455 76.0435 4.5027C76.656 4.61712 77.2418 4.84335 77.7687 5.16838C77.9505 5.2906 78.115 5.43363 78.2595 5.59224C78.3357 5.67546 78.4066 5.76387 78.4708 5.85487C78.5497 5.96929 78.6193 6.0889 78.6794 6.21372C78.8612 6.62718 78.9548 7.07184 78.9548 7.52169C78.9548 7.97155 78.8612 8.41621 78.6794 8.82965C78.4788 9.25091 78.1633 9.61236 77.7687 9.87499C77.5601 10.005 77.3422 10.1194 77.1175 10.2156C76.7738 10.3639 76.414 10.4731 76.0435 10.5407V10.5745Z" fill="#203D36"/>
<path d="M126.212 1.63936V22.715C126.22 22.8554 126.257 22.9933 126.321 23.1181C126.387 23.2456 126.476 23.3573 126.586 23.4484C126.696 23.5394 126.824 23.6069 126.962 23.6512C127.035 23.6746 127.111 23.6876 127.188 23.6954C127.255 23.7005 127.321 23.7005 127.388 23.6927H130.251C130.396 23.7083 130.542 23.6927 130.681 23.6512C130.819 23.6096 130.948 23.5394 131.059 23.4484C131.17 23.3573 131.261 23.2456 131.327 23.1208C131.392 22.9933 131.432 22.8554 131.442 22.715V1.60035C131.455 1.45473 131.436 1.30912 131.388 1.1739C131.371 1.12189 131.348 1.06989 131.321 1.02048L131.281 0.952871L131.205 0.848858L131.164 0.802052C131.063 0.695438 130.942 0.607026 130.807 0.549819C130.67 0.490011 130.523 0.456207 130.375 0.453606H127.403C127.241 0.445805 127.081 0.469208 126.931 0.526416C126.878 0.547218 126.825 0.570621 126.776 0.599225C126.686 0.648632 126.605 0.711039 126.534 0.783849C126.421 0.895664 126.336 1.03088 126.282 1.1791L126.249 1.28831L126.234 1.36112C126.218 1.45214 126.216 1.54575 126.212 1.63936Z" fill="#203D36"/>
<path fill-rule="evenodd" clip-rule="evenodd" d="M45.3201 1.48111C45.1503 1.18207 44.9042 0.929841 44.6046 0.750417C44.4857 0.680208 44.3613 0.620401 44.2316 0.576195C44.035 0.505986 43.8263 0.46438 43.6151 0.453979H42.2939C42.1949 0.45918 42.0973 0.472182 42.0009 0.492984C41.9368 0.505986 41.8726 0.521587 41.8097 0.53979C41.6359 0.591796 41.47 0.664606 41.3149 0.758218C41.1678 0.849231 41.0341 0.955844 40.9164 1.07806C40.7974 1.20028 40.6944 1.33809 40.6102 1.48631L30.1404 22.7883C29.8462 23.3474 30.1404 23.753 30.825 23.753H33.2496C33.4221 23.7686 33.5959 23.7582 33.7644 23.7218C33.9276 23.6853 34.0853 23.6256 34.2312 23.5398C34.5268 23.3708 34.7607 23.1159 34.8984 22.809C35.1592 22.2968 35.7343 21.1709 35.844 20.9394C35.9536 20.7054 36.4537 20.4402 37.1038 20.4402H48.3532C49.0379 20.4402 49.4217 20.5598 49.6129 20.9316C49.7359 21.1787 50.2977 22.1901 50.5919 22.7415C50.7362 23.0588 50.977 23.324 51.2806 23.5034C51.5828 23.6828 51.9359 23.7686 52.2901 23.7477H55.7966C56.4466 23.7477 56.7274 23.2694 56.4813 22.8221L45.3201 1.48111ZM38.6791 17.1248C38.544 17.1482 38.4036 17.1351 38.2779 17.0831C38.1508 17.0285 38.0438 16.9401 37.9703 16.8284C37.9221 16.7555 37.8901 16.6749 37.874 16.5891C37.866 16.5423 37.862 16.4955 37.8634 16.4487C37.8646 16.3836 37.8767 16.3212 37.8981 16.2614C37.9115 16.2198 37.9302 16.1808 37.9516 16.1418L37.9943 16.0794L42.1025 7.49049C42.3753 6.91842 42.8208 6.91842 43.0882 7.49049L47.1549 16.0586C47.2365 16.1678 47.282 16.2953 47.286 16.4304C47.29 16.563 47.2525 16.6956 47.179 16.8075C47.1269 16.8881 47.0573 16.9557 46.9745 17.0078C46.9423 17.0285 46.9076 17.0468 46.8715 17.0624C46.7457 17.1143 46.6053 17.1299 46.4703 17.1039L38.6791 17.1248Z" fill="#203D36"/>
</svg>
