<svg width="125" height="92" viewBox="0 0 125 92" fill="none" xmlns="http://www.w3.org/2000/svg">
<g clip-path="url(#clip0_198_2763)">
<path d="M41.6216 78.0356C42.4313 78.7886 42.7686 79.9524 42.7686 81.3214V91.1784V91.7261H42.229H39.8003H39.2607V91.1784V81.4583C39.2607 81.1845 39.2607 80.9792 39.1933 80.7738C39.1259 80.5684 39.0582 80.4315 38.9909 80.2945C38.8559 80.0894 38.6535 80.0208 38.4512 79.9524C37.979 79.8155 37.5741 79.747 37.102 79.8155C35.6854 79.8155 34.8759 79.9524 34.5387 80.2263C34.2687 80.3631 34.0665 80.7739 34.0665 81.5267V91.2468V91.7945H33.5268H31.0983H30.5585V91.2468V77.8305V77.2828H31.0983H33.5268H34.0665V77.8305C34.2012 77.7619 34.4037 77.625 34.5387 77.5565C35.348 77.2144 36.4274 77.0089 37.7765 77.0089C39.463 76.9405 40.8122 77.2144 41.6216 78.0356ZM8.02754 80.2945H5.93634C4.857 80.2945 4.24989 80.1578 3.98009 79.9524C3.71017 79.8155 3.57532 79.5417 3.57532 79.0625V77.0089C3.57532 76.3244 3.77776 75.9822 4.11505 75.7767C4.31738 75.6399 4.65466 75.5714 5.12691 75.503C5.66652 75.4345 6.3411 75.3661 7.15064 75.3661C8.22999 75.3661 9.78146 75.503 11.7377 75.8453L12.3449 75.9136V75.2976V73.2441V72.7648L11.8727 72.6964C10.3887 72.4911 8.83707 72.4226 7.35297 72.3542C4.72213 72.3542 2.76578 72.6964 1.68643 73.4494C0.539617 74.2708 0 75.503 0 77.0774V78.5149C0 80.0208 0.337288 81.253 1.2143 82.1428C2.0912 83.0328 3.50784 83.375 5.26175 83.375H7.28549C8.36483 83.375 8.97203 83.5119 9.24185 83.7172C9.44418 83.9226 9.64651 84.2648 9.64651 84.8809V87.2085C9.64651 87.5509 9.57902 87.8247 9.44418 88.03C9.30922 88.2355 9.24184 88.3724 8.97192 88.4408C8.4323 88.7147 7.55529 88.8516 6.3411 88.8516C4.857 88.8516 3.03559 88.6463 0.944386 88.167L0.269809 88.03V88.7147V90.973V91.4523L0.742055 91.5207C2.49598 91.7945 4.31738 91.9315 6.13877 92C8.4323 92 10.1862 91.6576 11.4004 90.836C12.6821 89.9461 13.2218 88.4408 13.2218 86.3869V85.0863C13.2218 83.5805 12.8845 82.3483 12.075 81.5267C11.2656 80.6369 9.84893 80.2945 8.02754 80.2945ZM27.5904 82.0744V85.0178V85.5655H27.0508H18.8883V87.0032C18.8883 87.8247 19.1582 88.2355 19.5628 88.5094C20.1026 88.8516 20.912 89.0571 22.1262 89.0571C23.3405 89.0571 24.6898 88.8516 26.3762 88.4408L27.0508 88.2355V88.9202V90.836V91.2468L26.646 91.3154C25.0944 91.6576 23.4079 91.8631 21.8564 91.8631C19.8328 91.8631 18.2137 91.5207 17.0669 90.7677C15.9201 89.9461 15.313 88.7832 15.313 87.2085V81.9375C15.313 80.2263 15.7852 78.7887 16.9322 77.9672C18.0114 77.1458 19.563 76.8036 21.6541 76.8036C23.6104 76.8036 25.0945 77.1458 26.1064 77.8987C27.1857 78.8572 27.5904 80.2945 27.5904 82.0744ZM24.0826 81.253C24.0826 80.5685 23.8802 80.2261 23.6104 80.0208C23.273 79.8155 22.5985 79.6786 21.4517 79.6786C20.3724 79.6786 19.6979 79.8155 19.3607 80.0208C19.0907 80.1578 18.8883 80.5 18.8883 81.253V82.8274H24.0826V81.253ZM57.8791 72.628H58.4189V73.1756V91.1784V91.7261H57.8791H55.5181H54.9784V91.1784C54.8434 91.2468 54.7085 91.3154 54.5736 91.3838C53.6966 91.7945 52.5498 92 51.1334 92C49.2445 92 47.7604 91.7261 46.816 90.973C45.8716 90.22 45.4668 88.8516 45.4668 87.2085V81.3214C45.4668 79.8839 45.939 78.7203 46.8834 77.9672C47.8279 77.2828 49.3119 77.0089 51.2683 77.0089C52.28 77.0089 53.2919 77.1458 54.2363 77.4195C54.4387 77.4881 54.7085 77.5565 54.911 77.6935C54.911 76.9405 54.911 76.3244 54.911 75.8453V73.2441V72.6964H55.4506H57.3395H57.8791V72.628ZM54.911 81.0476C54.911 80.7055 54.7761 80.4315 54.3038 80.2263C53.8316 79.9524 53.0221 79.8155 51.8753 79.8155C51.2008 79.8155 50.5936 79.8155 50.1889 79.8839C49.7166 79.9524 49.447 80.0208 49.312 80.0894C49.177 80.1578 48.9747 80.3631 48.9747 81.0476V87.6878C48.9747 88.3039 49.177 88.6463 49.4468 88.8516C49.7841 89.0571 50.5262 89.2615 51.673 89.2615C52.9547 89.2615 53.8316 89.1244 54.3038 88.8516C54.7085 88.6463 54.911 88.3039 54.911 87.7562V81.0476ZM109.282 83.6488C108.472 83.0328 107.326 82.7589 105.842 82.7589H105.302H104.358C103.615 82.7589 103.076 82.622 102.806 82.4852C102.604 82.3483 102.469 82.2113 102.469 81.9375V80.7738C102.469 80.3631 102.604 80.0894 102.874 79.9524C103.211 79.747 103.953 79.6101 105.235 79.6101C106.584 79.6101 107.865 79.747 109.215 80.0208L109.822 80.1578V79.4733V77.6935V77.1458H109.282C107.056 77.0089 105.774 76.9405 105.302 76.9405C103.346 76.9405 101.795 77.2144 100.715 77.7619C99.5678 78.378 98.9608 79.3363 98.9608 80.6369V81.8691C98.9608 83.0328 99.3654 83.9911 100.176 84.6756C100.985 85.3602 102.199 85.7024 103.615 85.7024H105.1C105.909 85.7024 106.381 85.8394 106.652 85.9763C106.854 86.1131 106.988 86.3184 106.988 86.7293V88.0986C106.988 88.3724 106.988 88.5094 106.854 88.6463C106.786 88.7832 106.719 88.8516 106.517 88.9202C106.045 89.1244 105.37 89.1929 104.29 89.1929C103.481 89.1929 101.997 89.0571 99.838 88.6463L99.2309 88.5094V89.1256V91.0415V91.5207L99.7034 91.5892C101.188 91.7945 102.738 91.9315 104.222 91.9315C106.111 91.9315 107.595 91.6576 108.675 91.0415C109.89 90.3569 110.429 89.1245 110.429 87.5509V86.3869C110.497 85.2917 110.159 84.2649 109.282 83.6488ZM93.2945 72.628H92.7553V73.1756V91.1784V91.7261H93.2945H95.7235H96.2626V91.1784V73.1756V72.628H95.7235H93.2945ZM86.5488 77.2144H86.0096V77.7619V87.8931C86.0096 88.4408 85.8072 88.6463 85.537 88.7832C85.1325 88.9885 84.3227 89.1256 82.9735 89.1256C82.5014 89.1256 82.0966 89.0571 81.6244 88.9885C81.3546 88.9201 81.2197 88.8516 81.0848 88.6463C80.9498 88.5094 80.8823 88.3724 80.8823 88.167C80.8149 87.9617 80.8149 87.6878 80.8149 87.4823V77.7619V77.2144H80.2752H77.8466H77.3072V77.7619V87.6193C77.3072 88.9885 77.6444 90.1514 78.454 90.9046C79.2634 91.7261 80.6126 92 82.3665 92C83.7157 92 84.7945 91.8631 85.6049 91.4523C85.8072 91.3838 85.9418 91.3154 86.0762 91.1784V91.7261H86.6165H89.0445H89.5848V91.1784V77.7619V77.2144H89.0445H86.5488ZM74.2715 74.8869C74.5413 75.4345 74.6762 76.1191 74.6762 76.7352V80.5C74.6762 82.2113 74.0017 83.5119 72.6524 84.2649C71.3707 84.9494 69.6168 85.2917 67.4581 85.2917H65.3669V91.2468V91.7945H64.8273H62.1965H61.6567V91.2468V73.2441V72.6964H62.1965H67.863C68.605 72.6964 69.212 72.6964 69.7518 72.7648C70.3588 72.8333 70.8985 72.9017 71.5056 73.0386C72.0453 73.1756 72.5851 73.3809 73.0572 73.7233C73.5969 73.9286 74.0017 74.4078 74.2715 74.8869ZM71.0335 77.0089C71.0335 76.6667 70.966 76.3928 70.7637 76.1191C70.5613 75.8453 70.2915 75.7083 70.0216 75.6398C69.6843 75.503 69.347 75.4345 68.9422 75.4345C68.6724 75.4345 68.2677 75.3661 67.7954 75.3661H65.4344V82.3483H67.863C68.8748 82.3483 69.6168 82.2114 70.2241 81.8006C70.7637 81.5267 71.0335 81.0475 71.0335 80.2263V77.0089ZM125 82.0744V85.0178V85.5655H124.461H116.298V87.0032C116.298 87.8247 116.568 88.2355 116.972 88.5094C117.512 88.8516 118.322 89.0571 119.536 89.0571C120.75 89.0571 122.1 88.8516 123.786 88.4408L124.461 88.2355V88.9202V90.836V91.2468L124.055 91.3154C122.504 91.6576 120.818 91.8631 119.266 91.8631C117.243 91.8631 115.623 91.5207 114.477 90.7677C113.329 89.9461 112.722 88.7832 112.722 87.2085V81.9375C112.722 80.2263 113.195 78.7887 114.341 77.9672C115.421 77.1458 116.972 76.8036 119.064 76.8036C121.02 76.8036 122.504 77.1458 123.516 77.8987C124.595 78.8572 125 80.2945 125 82.0744ZM121.493 81.253C121.493 80.5685 121.29 80.2261 121.02 80.0208C120.682 79.8155 120.009 79.6786 118.861 79.6786C117.782 79.6786 117.107 79.8155 116.77 80.0208C116.5 80.1578 116.298 80.5 116.298 81.253V82.8274H121.493V81.253ZM88.7755 39.2917C89.4491 38.9494 90.1239 38.5386 90.6642 37.9226C91.2034 37.375 91.6081 36.6905 91.8782 35.9375C92.1483 35.1845 92.2151 34.3631 92.2151 33.6102C92.1483 32.7886 91.946 32.0356 91.6081 31.3511C91.2712 30.6667 90.7988 30.0506 90.1918 29.503C89.5848 29.0239 88.9099 28.6131 88.1674 28.4078C87.4259 28.2024 86.6832 28.1339 85.8739 28.2024C85.8072 28.2024 85.7393 28.2024 85.6716 28.2024C85.4692 28.2024 85.2669 28.2708 85.0646 28.3394H84.9968C84.7945 28.4078 84.5252 28.4761 84.3227 28.6131C84.2552 28.6131 84.2553 28.6815 84.1878 28.6815C83.9855 28.75 83.7831 28.8869 83.648 29.0237C83.648 29.0237 83.5808 29.0239 83.5808 29.0922C83.1759 29.3661 82.7712 29.7083 82.4338 30.1191C82.0966 30.5297 81.8268 30.9405 81.5569 31.4195H71.0335L67.2558 0H61.8591L49.7168 47.5059L45.8041 30.5297H31.9078V35.6636H41.8241L47.0184 57.9792H52.28L63.613 14.3065L66.5137 36.5536H81.4895C81.6918 37.0328 82.0293 37.4434 82.3665 37.8542C82.7038 38.2648 83.1085 38.5386 83.5133 38.8809C83.5133 38.8809 83.5808 38.8809 83.5808 38.9494C83.7831 39.0864 83.9855 39.1547 84.1203 39.2917C84.1878 39.2917 84.1878 39.3602 84.2553 39.3602C84.4576 39.4286 84.7274 39.5655 84.93 39.6339H84.9968C85.1991 39.7024 85.4026 39.7024 85.6049 39.7708C85.6716 39.7708 85.7393 39.7708 85.8072 39.7708C86.0762 39.8394 86.2787 39.8394 86.5488 39.8394C87.2913 39.7708 88.1006 39.5655 88.7755 39.2917Z" fill="#203D36"/>
</g>
<defs>
<clipPath id="clip0_198_2763">
<rect width="125" height="92" fill="white"/>
</clipPath>
</defs>
</svg>
