<svg width="176" height="34" viewBox="0 0 176 34" fill="none" xmlns="http://www.w3.org/2000/svg">
<g clip-path="url(#clip0_198_2731)">
<path d="M21.3872 16.81V33.6212H24.0166H26.6462V25.2344V16.8477L27.3824 16.1677C28.557 15.0722 29.5386 14.6567 31.0462 14.5811C33.0972 14.4678 34.2191 15.2422 34.6923 17.0933C34.8151 17.5844 34.8852 20.5312 34.8852 25.6311V33.4323H37.5148H40.1442V25.99C40.1442 16.2056 39.9688 14.8833 38.3212 12.6356C36.5506 10.1989 33.1148 9.38668 29.9243 10.6333C28.855 11.0489 28.3642 11.3511 27.0494 12.39L26.6462 12.6922V6.34556V-0.00109863H24.0166H21.3872V16.81Z" fill="#203D36"/>
<path d="M87.3005 16.7157V33.4324H89.93H92.5594V28.1245V22.798L93.5061 22.9301C94.032 22.9868 94.5755 23.1001 94.7156 23.1568C94.8558 23.2135 96.3459 25.4801 98.0113 28.1812C100.465 32.148 101.167 33.168 101.622 33.3757C102.394 33.7157 107.179 33.7345 107.057 33.3757C106.881 32.8845 99.6942 21.778 99.1683 21.1924C98.6599 20.6257 98.6423 20.5501 98.9228 20.3801C99.1683 20.2101 105.777 11.8801 106.566 10.709C106.794 10.369 106.706 10.369 103.989 10.4257C101.482 10.4824 101.149 10.5201 100.799 10.8601C100.571 11.0679 99.1156 12.9568 97.5205 15.0346C95.9427 17.1312 94.5403 18.9068 94.3826 18.9635C94.2248 19.0201 93.7515 19.0768 93.3308 19.0768H92.5594V9.53792V-0.000976562H89.93H87.3005V16.7157Z" fill="#203D36"/>
<path d="M110.386 0.112696C110.316 0.188252 110.263 7.72492 110.263 16.8482V33.4327H112.279C114.628 33.4327 114.891 33.2815 115.084 31.695L115.207 30.7505L116.118 31.676C117.275 32.885 117.748 33.1871 118.975 33.5271C122.341 34.4715 126.145 32.7715 128.161 29.4094C130.493 25.5182 130.685 18.6805 128.564 14.336C127.232 11.5971 125.234 10.1805 122.534 10.0482C120.045 9.91603 118.344 10.5582 116.539 12.2771L115.697 13.0516L115.662 6.57269L115.61 0.0938072L113.05 0.0371402C111.648 0.0182511 110.456 0.0560292 110.386 0.112696ZM122.201 14.8649C122.937 15.2805 123.27 15.6205 123.691 16.376C124.48 17.8115 124.69 19.1527 124.603 22.2315C124.497 25.1594 124.252 26.2171 123.323 27.596C122.464 28.8994 121.43 29.3715 119.554 29.3715C117.959 29.3715 117.223 29.0882 116.066 28.0494L115.522 27.5394V22.3071V17.075L116.363 16.206C118.152 14.336 120.308 13.8449 122.201 14.8649Z" fill="#203D36"/>
<path d="M8.06472 10.2184C7.53882 10.3128 6.43444 10.7284 5.64559 11.1628C2.0695 13.0517 0.17627 16.8106 0.17627 22.0051C0.17627 24.6495 0.509338 26.3307 1.42089 28.3328C2.7181 31.1284 4.99699 33.1116 7.66153 33.7162C10.852 34.4528 14.1301 33.6595 16.777 31.5251C18.1795 30.3916 18.1969 30.2784 17.1627 28.8239C16.3388 27.6907 16.1986 27.5772 15.6025 27.5772C15.1994 27.5772 14.8488 27.7095 14.656 27.9362C14.4982 28.1251 13.8496 28.5595 13.2536 28.8807C12.2719 29.3906 11.9564 29.4662 10.6591 29.4662C8.62567 29.4662 7.5914 28.9184 6.6448 27.3507C5.71572 25.7828 5.36511 24.0072 5.4703 21.3628C5.61053 18.1516 6.36432 16.3951 8.15237 15.205C8.95874 14.6762 9.09897 14.6384 10.852 14.6384C12.6751 14.6384 12.7452 14.6573 14.0599 15.375C15.252 16.0551 15.4273 16.0928 15.8831 15.8851C16.1636 15.7716 16.7419 15.1295 17.1627 14.5062L17.934 13.335L17.1452 12.5606C15.0591 10.5395 11.5181 9.63283 8.06472 10.2184Z" fill="#203D36"/>
<path d="M51.7144 10.2183C51.1886 10.3128 50.0842 10.7283 49.2778 11.1628C45.5439 13.1461 43.4753 17.2828 43.7208 22.2883C43.896 25.9149 44.8428 28.5028 46.806 30.6183C48.8921 32.9039 51.6093 33.9239 55.0451 33.7539C58.0602 33.6028 60.3917 32.6772 62.1622 30.9205L63.1088 29.9949L62.1272 28.6916C61.3558 27.6716 61.0403 27.3883 60.6722 27.3883C60.4267 27.3883 59.5152 27.7661 58.6387 28.2383C56.0443 29.6172 53.8006 29.7495 51.7495 28.6349C50.2244 27.8039 49.2252 26.0283 48.9798 23.7049L48.8571 22.6661H55.6236C63.7925 22.6661 63.2141 22.8549 63.1791 20.1728C63.1088 13.1839 58.3758 9.0661 51.7144 10.2183ZM56.1495 14.4872C57.3415 15.0161 58.551 17.0939 58.551 18.6239V19.0772H53.818C48.4889 19.0772 48.822 19.1905 49.3303 17.6039C50.1543 15.1105 52.0124 13.845 54.5192 14.1094C55.0451 14.1661 55.7814 14.3361 56.1495 14.4872Z" fill="#203D36"/>
<path d="M74.0303 10.1995C71.1203 10.7662 68.4734 12.9384 67.2287 15.7718C66.0543 18.4728 65.7212 22.7228 66.4399 25.764C67.4392 29.9951 70.0686 32.9228 73.6096 33.7351C76.9402 34.4907 81.0423 33.3384 83.1284 31.034L83.9522 30.1272L83.0582 28.8428C82.2694 27.7095 82.1116 27.5772 81.5681 27.5772C81.2001 27.5772 80.7443 27.7472 80.4113 28.0307C79.0789 29.1072 78.0973 29.4663 76.5546 29.4663C74.0829 29.4663 72.7681 28.4651 71.8566 25.8963C71.3658 24.574 71.1906 20.9095 71.5236 19.2851C71.8041 17.9063 72.663 16.1684 73.3466 15.6207C74.5387 14.6384 75.0471 14.4684 76.6949 14.4495C78.2024 14.4495 78.3778 14.4873 79.6399 15.1673C81.5331 16.1684 81.8837 16.1118 82.9706 14.5629L83.8121 13.354L83.3212 12.8062C82.585 11.9751 81.0599 11.0495 79.675 10.5773C78.2726 10.1051 75.4853 9.91619 74.0303 10.1995Z" fill="#203D36"/>
<path d="M140.995 10.1996C138.014 10.7852 135.087 13.0519 133.877 15.753C132.948 17.8118 132.65 19.5686 132.755 22.553C132.843 25.4241 133.211 27.0108 134.228 28.8808C135.35 30.9774 137.804 32.8286 140.328 33.5274C141.661 33.8863 144.553 33.8863 146.026 33.5086C150.951 32.2618 153.738 28.0686 153.738 21.9108C153.738 16.1118 151.337 12.2019 146.832 10.653C145.237 10.1052 142.572 9.89744 140.995 10.1996ZM144.974 14.5441C146.324 14.9408 147.533 16.3953 148.059 18.2086C148.48 19.7008 148.567 22.8741 148.234 24.5363C147.778 26.8218 146.99 28.1441 145.587 28.9563C144.571 29.5608 141.871 29.5608 140.837 28.9563C138.768 27.7663 137.804 25.0653 138.014 21.0797C138.067 20.0218 138.242 18.7374 138.383 18.2274C138.908 16.3763 140.048 14.9974 141.433 14.5441C142.099 14.3174 144.238 14.3174 144.974 14.5441Z" fill="#203D36"/>
<path d="M170.217 10.5012C169.777 10.8034 166.078 16.9045 165.605 18.0945L165.377 18.699L163.152 14.8645C161.925 12.749 160.768 10.8601 160.61 10.6901C160.328 10.4445 159.82 10.3878 157.437 10.3878H154.597L158.103 15.979L161.609 21.5701L158.103 27.2367C156.175 30.3534 154.545 33.0167 154.491 33.1678C154.421 33.3945 154.825 33.4322 156.928 33.4322H159.453L159.996 32.809C160.592 32.1478 164.536 25.6878 164.799 24.9513C165.01 24.3845 164.712 23.969 167.569 29.0501C168.743 31.1467 169.883 32.9978 170.093 33.149C170.602 33.5267 175.913 33.5645 175.774 33.1867C175.738 33.0545 174.107 30.3534 172.162 27.1613C170.233 23.969 168.639 21.3245 168.639 21.249C168.639 21.1734 170.146 18.7745 171.986 15.9034C173.827 13.0323 175.388 10.5767 175.423 10.4445C175.562 10.0478 170.795 10.1045 170.217 10.5012Z" fill="#203D36"/>
</g>
<defs>
<clipPath id="clip0_198_2731">
<rect width="176" height="34" fill="white"/>
</clipPath>
</defs>
</svg>
