<svg width="141" height="50" viewBox="0 0 141 50" fill="none" xmlns="http://www.w3.org/2000/svg">
<path d="M0.167603 1.12305H5.79514L9.45065 29.2375H9.54684L13.2023 1.12305H18.349L12.9618 37.3541H5.50655L0.167603 1.12305Z" fill="#203D36"/>
<path d="M29.0752 1.12305H36.6747L42.4945 37.3541H36.9152L35.9051 30.1666V30.2642H29.5561L28.5461 37.3541H23.3513L29.0752 1.12305ZM35.1835 25.3258L32.6825 7.43045H32.5862L30.1333 25.3258H35.1835Z" fill="#203D36"/>
<path d="M52.3073 6.25698H46.4392V1.12305H63.7548V6.30586H57.8867V37.3541H52.3073V6.25698Z" fill="#203D36"/>
<path d="M72.6521 35.4967C71.2571 33.932 70.5839 31.6828 70.5839 28.7492V26.6955H75.8746V29.1892C75.8746 31.5361 76.8368 32.7097 78.7605 32.7097C79.7227 32.7097 80.4441 32.4161 80.925 31.8783C81.4061 31.3405 81.6464 30.3627 81.6464 29.0916C81.6464 27.5756 81.3098 26.2555 80.6365 25.082C79.963 23.9086 78.7125 22.5395 76.8847 20.9259C74.576 18.8725 72.9407 16.9655 72.0268 15.3031C71.1129 13.6407 70.6318 11.7338 70.6318 9.63136C70.6318 6.74658 71.3534 4.54633 72.7482 2.9817C74.1912 1.41708 76.2594 0.634766 78.953 0.634766C81.6464 0.634766 83.6667 1.41708 85.0134 2.9817C86.4084 4.54633 87.0816 6.79548 87.0816 9.72917V11.2449H81.7908V9.38691C81.7908 8.16453 81.5503 7.23553 81.0694 6.6488C80.5883 6.06206 79.915 5.81759 79.0011 5.81759C77.1252 5.81759 76.2115 6.99106 76.2115 9.28909C76.2115 10.6093 76.548 11.8316 77.2696 12.9562C77.9428 14.0808 79.2416 15.4987 81.0694 17.1122C83.4262 19.1658 85.0134 21.0727 85.9273 22.7352C86.793 24.4466 87.274 26.4022 87.274 28.7003C87.274 31.6828 86.5526 33.932 85.1096 35.5455C83.6667 37.1102 81.5503 37.9414 78.8088 37.9414C76.1152 37.8434 74.0469 37.0611 72.6521 35.4967Z" fill="#203D36"/>
<path d="M99.7277 1.12305H107.327L113.147 37.3541H107.568L106.558 30.1666V30.2642H100.209L99.1987 37.3541H94.0039L99.7277 1.12305ZM105.836 25.3258L103.335 7.43045H103.239L100.786 25.3258H105.836Z" fill="#203D36"/>
<path d="M120.894 1.12305H126.473V16.3781L133.64 1.12305H139.219L132.533 14.4224L139.315 37.3541H133.447L128.734 21.2186L126.473 25.8148V37.3541H120.894V1.12305Z" fill="#203D36"/>
<path d="M5.55273 43.71H6.659V45.3723L8.19816 43.71H9.54492L7.57287 45.9101L9.59301 48.2081H8.10195L6.8033 46.5946L6.659 46.7903V48.2571H5.55273V43.71Z" fill="#203D36"/>
<path d="M15.4615 43.6123C15.8945 43.6123 16.2793 43.71 16.6641 43.9545C17.0488 44.1501 17.3374 44.4436 17.5298 44.8346C17.7223 45.1768 17.8184 45.617 17.8184 46.0081C17.8184 46.4481 17.7223 46.8393 17.5298 47.1817C17.3374 47.5726 17.0488 47.8172 16.6641 48.0617C16.3273 48.2573 15.8945 48.355 15.4615 48.355C14.8363 48.355 14.2591 48.1106 13.8262 47.6704C13.3933 47.2304 13.1528 46.6437 13.1528 46.0081C13.1528 45.3237 13.3933 44.7368 13.9224 44.2478C14.3553 43.8078 14.8844 43.6123 15.4615 43.6123ZM15.4615 44.6879C15.1249 44.6879 14.8363 44.7857 14.5958 45.0792C14.3553 45.3237 14.2591 45.617 14.2591 46.0081C14.2591 46.3993 14.3553 46.7415 14.5958 46.9372C14.8363 47.1817 15.1249 47.2793 15.4615 47.2793C15.7982 47.2793 16.0868 47.1326 16.3273 46.8881C16.5679 46.6437 16.6641 46.3503 16.6641 45.9592C16.6641 45.5679 16.5679 45.2746 16.3273 45.0301C16.1349 44.7857 15.8463 44.6879 15.4615 44.6879Z" fill="#203D36"/>
<path d="M23.1614 45.3695H24.8448V43.7561H25.9512V48.2544H24.8448V46.3964H23.1614V48.2544H22.0552V43.7561H23.1614V45.3695Z" fill="#203D36"/>
<path d="M30.9945 48.2081V48.9904H29.9846V47.2792H30.6579L32.1971 43.71H32.9185L34.4577 47.2792H35.1311V49.0395H34.0729V48.2571H30.9945V48.2081ZM33.2552 47.2792L32.5337 45.3723L31.7641 47.2792H33.2552Z" fill="#203D36"/>
<path d="M39.7546 48.2081H39.1772V43.71H40.2836V46.3501L42.5442 43.71H43.0733V48.2081H41.9671V45.6168L39.7546 48.2081Z" fill="#203D36"/>
<path d="M47.1099 43.71H51.2462V44.7856H49.7553V48.2081H48.6491V44.7856H47.1099V43.71Z" fill="#203D36"/>
<path d="M59.7583 46.3015H56.199C56.2473 46.6437 56.3915 46.8881 56.6319 47.0839C56.8724 47.2793 57.1612 47.3771 57.4977 47.3771C57.9305 47.3771 58.2674 47.2304 58.5558 46.9372L59.4697 47.3771C59.2293 47.7195 58.9407 47.9639 58.6521 48.1104C58.3154 48.2573 57.9305 48.355 57.4977 48.355C56.8244 48.355 56.2473 48.1106 55.8143 47.6704C55.3813 47.2304 55.1409 46.6437 55.1409 46.0081C55.1409 45.3237 55.3813 44.7368 55.8143 44.2968C56.2473 43.8568 56.7763 43.6123 57.4497 43.6123C58.1711 43.6123 58.7002 43.8568 59.1332 44.2968C59.566 44.7368 59.8066 45.3725 59.8066 46.1059L59.7583 46.3015ZM58.6521 45.4214C58.5558 45.1768 58.4116 44.9814 58.2193 44.7859C58.0268 44.639 57.7382 44.5414 57.4497 44.5414C57.1612 44.5414 56.8724 44.639 56.6319 44.7859C56.4876 44.8836 56.3434 45.0792 56.2473 45.3725H58.6521V45.4214Z" fill="#203D36"/>
<path d="M65.0955 43.71V44.199C65.288 44.0036 65.5283 43.8568 65.7689 43.759C66.0094 43.6612 66.25 43.6123 66.5384 43.6123C67.1156 43.6123 67.5967 43.8568 68.0295 44.2968C68.4143 44.7368 68.6548 45.3237 68.6548 46.0081C68.6548 46.6926 68.4625 47.2304 68.0295 47.6704C67.5967 48.1106 67.1156 48.355 66.5384 48.355C66.298 48.355 66.0575 48.3062 65.817 48.2082C65.5766 48.1106 65.3841 47.9639 65.1436 47.7684V49.8707H64.0374V43.71H65.0955ZM66.298 44.639C65.9614 44.639 65.6728 44.7368 65.4323 44.9814C65.1917 45.2259 65.0955 45.5192 65.0955 45.9103C65.0955 46.3015 65.1917 46.6437 65.4323 46.8881C65.6728 47.1326 65.9614 47.2793 66.298 47.2793C66.6347 47.2793 66.9233 47.1326 67.1637 46.8881C67.4043 46.6437 67.5004 46.3015 67.5004 45.9103C67.5004 45.5192 67.4043 45.2259 67.1637 44.9814C66.9233 44.7859 66.6347 44.639 66.298 44.639Z" fill="#203D36"/>
<path d="M77.2217 44.6391L76.3078 45.1769C76.1154 44.9813 75.9711 44.8836 75.7787 44.7858C75.5862 44.7369 75.394 44.6879 75.2015 44.6879C74.7687 44.6879 74.432 44.8346 74.1915 45.0791C73.9511 45.3236 73.8067 45.666 73.8067 46.0569C73.8067 46.448 73.9511 46.7416 74.1915 46.986C74.432 47.2304 74.7687 47.3283 75.1534 47.3283C75.6345 47.3283 76.0193 47.1327 76.3078 46.7904L77.1737 47.3771C76.6926 48.0127 76.0193 48.3061 75.1534 48.3061C74.3839 48.3061 73.7586 48.0618 73.3258 47.6216C72.8928 47.1327 72.6523 46.5949 72.6523 45.9593C72.6523 45.5191 72.7486 45.1279 72.9891 44.7369C73.1814 44.3458 73.5181 44.1013 73.9028 43.8568C74.2876 43.6611 74.7206 43.5635 75.2015 43.5635C75.6345 43.5635 76.0193 43.6611 76.404 43.8079C76.6926 44.0522 76.9812 44.2968 77.2217 44.6391Z" fill="#203D36"/>
<path d="M82.655 45.3723H82.9916C83.4726 45.3723 83.8092 45.4214 84.0497 45.4701C84.2901 45.5679 84.5308 45.7146 84.675 45.9101C84.8675 46.1546 84.9156 46.4479 84.9156 46.7903C84.9156 47.1325 84.8194 47.4259 84.675 47.6703C84.5308 47.9148 84.3384 48.0615 84.098 48.1104C83.8573 48.2081 83.5206 48.2081 83.0878 48.2081H81.5005V43.71H82.6067V45.3723H82.655ZM82.655 47.377H82.9916C83.1841 47.377 83.3283 47.377 83.4245 47.3281C83.5206 47.2792 83.6169 47.2303 83.6648 47.1815C83.7131 47.0837 83.7611 46.9857 83.7611 46.8881C83.7611 46.497 83.5206 46.3014 83.0878 46.3014H82.6067V47.377H82.655Z" fill="#203D36"/>
<path d="M89.1458 43.71H90.2521V45.3723L91.7913 43.71H93.138L91.166 45.9101L93.186 48.2081H91.6951L90.3964 46.5946L90.3001 46.7414V48.2081H89.194V43.71H89.1458Z" fill="#203D36"/>
<path d="M97.5656 48.2081H96.9883V43.71H98.0947V46.3501L100.355 43.71H100.884V48.2081H99.7781V45.6168L97.5656 48.2081Z" fill="#203D36"/>
<path d="M105.884 48.208H105.307V43.7097H106.413V46.35L108.674 43.7097H109.203V48.208H108.097V45.6166L105.884 48.208ZM105.644 41.7539H106.557C106.606 41.8517 106.75 41.9495 106.846 41.9983C106.99 42.0473 107.135 42.0962 107.327 42.0962C107.52 42.0962 107.664 42.0473 107.808 41.9983C107.904 41.9495 108 41.8517 108.049 41.7539H108.962C108.914 42.0961 108.722 42.3895 108.481 42.5852C108.193 42.7806 107.808 42.9273 107.327 42.9273C106.99 42.9273 106.702 42.8784 106.461 42.7806C106.221 42.6828 106.028 42.5361 105.932 42.3895C105.74 42.1941 105.644 41.9495 105.644 41.7539Z" fill="#203D36"/>
<path d="M119.931 48.2081V48.9904H118.921V47.2792H119.594L121.133 43.71H121.855L123.394 47.2792H124.067V49.0395H123.009V48.2571H119.931V48.2081ZM122.191 47.2792L121.47 45.3723L120.701 47.2792H122.191Z" fill="#203D36"/>
<path d="M128.542 41.8516C128.734 41.8516 128.926 41.9005 129.023 42.0472C129.167 42.1939 129.215 42.3405 129.215 42.585C129.215 42.7805 129.167 42.9761 129.023 43.1228C128.878 43.2695 128.734 43.3183 128.542 43.3183C128.349 43.3183 128.157 43.2695 128.013 43.1228C127.868 42.9761 127.82 42.7805 127.82 42.585C127.82 42.3894 127.868 42.1938 128.013 42.0959C128.205 41.9494 128.349 41.8516 128.542 41.8516ZM128.013 43.7095H129.119V48.2078H128.013V43.7095Z" fill="#203D36"/>
<path d="M136.188 46.5457L137.535 43.71H138.257L139.363 48.2081H138.257L137.68 45.5679L136.381 48.2081H135.948L134.649 45.5679L134.072 48.2081H132.966L134.072 43.71H134.794L136.188 46.5457Z" fill="#203D36"/>
</svg>
