<svg width="159" height="48" viewBox="0 0 159 48" fill="none" xmlns="http://www.w3.org/2000/svg">
<path d="M127.138 23.1528C123.152 23.1513 122.086 23.2371 120.763 23.6695C119.377 24.1219 118.518 24.942 118.138 26.1794C117.524 28.2341 117.627 32.4356 118.355 33.8923C118.884 34.9654 119.993 35.6217 121.658 35.8885C122.962 36.097 133.649 36.094 134.538 35.8854C136.413 35.4438 137.519 34.3092 137.782 32.552C137.911 31.6979 137.982 31.7165 134.325 31.7487L131.151 31.7746L131.039 32.1734C130.957 32.4451 130.822 32.6979 130.642 32.9172C130.462 33.1363 130.24 33.3177 129.989 33.4505C129.664 33.6038 129.333 33.6268 127.723 33.5992C125.662 33.564 125.554 33.5333 125.039 32.8418C124.745 32.4477 124.66 31.0019 124.917 30.7474C125.07 30.5941 125.695 30.5833 131.381 30.6401L137.825 30.5251C138.032 30.2751 137.925 26.6917 137.69 26.06C137.284 24.9361 136.367 24.1048 135.096 23.7077C133.922 23.3397 131.245 23.1557 127.123 23.1557L127.138 23.1528ZM128.083 25.7593C128.828 25.7624 129.555 25.8315 129.825 25.9695C130.806 26.4694 131.363 27.4291 130.924 27.8661C130.782 28.0087 130.372 28.0303 128.046 28.0303C126.077 28.0303 125.298 27.9964 125.209 27.9044C125.14 27.8354 125.084 27.5748 125.084 27.3279C125.084 26.7529 125.519 26.2241 126.218 25.9542C126.571 25.8193 127.338 25.7547 128.083 25.7547V25.7593ZM75.0249 35.8181C73.1819 35.7108 72.5363 35.6096 71.7068 35.2968C70.7867 34.9174 70.0536 34.19 69.6675 33.2728C69.3961 32.546 69.2029 31.3868 69.2473 30.7581L69.278 30.298H77.0765L77.1379 30.9299C77.2375 31.9572 77.6592 32.5353 78.4872 32.7821C78.7264 32.8527 79.7353 32.8832 81.1951 32.8617C83.5165 32.828 83.5227 32.8264 83.949 32.5443C84.5516 32.1456 84.823 31.5371 84.823 30.5879C84.823 29.7247 84.711 29.3613 84.3169 28.9503C83.8155 28.4244 83.3571 28.3675 78.4443 28.2448L73.1236 27.9734C72.0242 27.7588 70.8543 27.1548 70.4142 26.5934C69.8269 25.8206 69.7196 25.2335 69.7794 23.1099C69.8361 21.0751 69.9067 20.7223 70.4127 19.9771C71.0459 19.0571 72.1791 18.4899 73.9317 18.2599C74.4009 18.1986 77.673 18.1371 81.5017 18.1064L89.0718 18.2707C90.4825 18.6019 91.3611 19.0878 91.8272 19.7962C92.2535 20.4463 92.4773 22.9979 92.1385 23.323C91.9943 23.4671 91.5129 23.4886 88.4631 23.4886C85.7797 23.4886 84.9287 23.4578 84.8475 23.3566C84.7892 23.2845 84.7217 22.9151 84.6987 22.5349C84.6297 21.391 84.1468 20.9494 82.7361 20.7255C81.767 20.5722 78.9303 20.687 78.1928 20.9094C77.0581 21.2513 76.8787 21.5227 76.9355 22.895C76.9769 23.8764 77.1225 24.183 77.7481 24.6093C78.1437 24.8792 78.4795 24.9037 83.9827 25.057L88.6716 25.3637C90.5515 25.7932 91.8609 26.7178 92.2519 27.8908C92.4697 28.5501 92.6429 30.5818 92.5586 31.5355C92.3393 34.0778 91.197 35.3658 88.9553 35.5943C86.042 35.8917 78.5807 35.9958 75.0203 35.7888L75.0249 35.8181ZM95.7295 35.8074C95.7019 35.7353 95.6912 31.787 95.7065 27.0337L95.7341 18.3916L98.9357 18.364L102.281 18.4562C102.396 18.5513 102.426 19.1155 102.426 21.2469V23.9195L102.68 23.9839C102.833 24.0222 103.263 23.9348 103.76 23.7646C105.336 23.2249 109.76 23.1894 111.721 23.7031C113.335 24.1232 114.445 24.9344 114.735 25.9034C114.915 26.5168 114.913 35.634 114.734 35.8134C114.642 35.9054 113.814 35.9391 111.593 35.9391C109.373 35.9391 108.545 35.9054 108.453 35.8134C108.361 35.7214 108.327 34.6634 108.327 31.7117V27.7359L108.015 27.4231C107.003 26.4111 103.787 26.4786 102.648 27.5335L102.41 27.7574V31.7224L102.285 35.8134C102.101 35.9974 95.7863 35.9945 95.7142 35.8089L95.7295 35.8074ZM141.107 35.7352C140.935 35.4285 140.956 18.7506 141.128 18.516C141.248 18.3519 141.545 18.338 144.474 18.3625L147.688 18.3901V35.8703L144.468 35.8977C141.355 35.9238 141.228 35.9178 141.122 35.72L141.107 35.7352ZM151.478 35.8074C151.45 35.7353 151.44 31.787 151.455 27.0337L151.483 18.3916L154.684 18.364L158.03 18.4562C158.229 18.6218 158.248 35.6294 158.048 35.8134C157.864 35.9974 151.55 35.9929 151.478 35.8074Z" fill="#203D36"/>
<path d="M27.1145 47.4204C27.4365 47.2625 27.8045 46.9865 28.1909 46.6154L28.7781 46.0511L34.6508 45.999L40.5572 45.8303C40.5756 45.769 40.6109 45.4869 40.6339 45.2093L40.7811 43.7266L41.4005 37.719L41.4895 36.8113L51.0575 29.7886C51.2369 29.6537 51.4561 28.2522 51.5175 26.9397C51.5665 25.5643 51.4791 24.5829 51.2108 23.4897C50.9992 22.6279 50.53 21.4043 50.4135 21.4043C50.3675 21.4043 47.5691 24.2011 44.1912 27.6189L36.3589 35.5417L34.6339 37.1179C34.5879 36.9401 34.7413 36.7254 36.3053 34.7535L42.2147 27.3092L49.8599 17.594C49.8983 17.4468 49.5717 16.2861 49.3233 15.6896C49.0442 15.0195 48.4646 14.0413 47.8819 13.2623C47.3606 12.5601 46.0113 11.0973 45.9499 11.1663C45.9346 11.1862 45.4194 12.0817 44.8107 13.1565L33.5775 32.9457L32.1867 35.3224C32.1285 35.3807 32.0303 35.3991 31.9383 35.3715C31.6347 35.2749 31.7482 34.9421 32.9856 32.2941L41.4895 14.0443L43.9428 8.65161C43.9428 8.43694 43.4169 7.70401 42.8495 7.12901C42.1979 6.46968 41.1399 5.66314 40.2122 5.11728C39.3949 4.63734 37.7957 3.82928 37.7512 3.87528C37.7205 3.90594 37.5979 4.38894 36.5245 8.12721L29.5724 32.7295C29.2565 33.8642 29.2151 33.9593 29.0449 33.9593C28.8241 33.9593 28.8088 33.7783 28.9621 32.9933L29.4375 30.5215L29.7196 29.0388L34.7106 2.48148L34.5419 2.35574C33.4134 1.52161 32.0365 1.07234 30.037 0.886809C29.2013 0.810142 27.3506 0.814741 27.277 0.894475C27.2617 0.912875 27.2095 2.05061 27.1635 3.42448L26.3585 26.8323L26.1853 31.5887C26.0902 34.2721 26.0657 34.4668 25.8127 34.4668C25.6777 34.4668 25.6547 34.2491 25.5673 32.0441L25.1687 22.7092L25.023 19.2715L24.77 13.5184L24.6596 10.9117L24.5523 8.52434L24.2425 1.28701L24.2272 0.781009L23.6476 0.722742C22.1469 0.606822 20.6378 0.777482 19.2009 1.22568C18.5631 1.44801 17.5633 1.95401 17.0972 2.29441L16.7691 2.53361L21.1452 24.3913L23.0343 34.0513C23.0343 34.3273 22.8533 34.4039 22.6632 34.2123C22.5344 34.0835 21.3706 30.1091 18.6965 20.6576L17.9697 18.1245L15.8659 10.7676L13.9186 4.02094C13.8113 3.84921 11.8149 4.73854 10.7906 5.41167C9.64674 6.16301 8.56115 7.22101 7.79141 8.32501L7.49395 8.75434L19.5505 33.9286C19.8342 34.522 20.0749 35.1062 20.0841 35.2289C20.1071 35.5325 19.9001 35.5662 19.6548 35.2979C19.5536 35.1859 18.6735 33.7262 17.6952 32.0533L5.59261 11.3717C5.48068 11.2491 4.07768 12.8943 3.37388 13.9738C2.60261 15.1545 2.05521 16.5498 1.94021 17.6201L1.88961 18.0923L7.08301 24.4587L14.8355 33.9623L17.3717 37.2191C17.3717 37.2191 17.2689 37.3464 17.1693 37.3571C16.9669 37.3817 16.3765 36.7975 9.06408 29.3409L1.07541 21.3185C0.925145 21.4687 0.409945 23.2888 0.196811 24.4204C-0.00252187 25.4723 0.0174119 27.8091 0.230545 28.8364C0.344012 29.3823 0.434479 29.6414 0.549479 29.7564C0.696679 29.9005 1.93868 30.8512 8.17015 35.5938L10.2769 37.1961L10.3613 37.9199L10.556 39.6219L10.7676 41.4312L11.0589 43.9995L11.2813 45.9009L11.3119 46.0634H23.1953L23.6185 46.5234C24.4035 47.3821 25.1671 47.747 26.0841 47.7041C26.5349 47.6826 26.7327 47.632 27.1267 47.4373L27.1145 47.4204Z" fill="#203D36"/>
</svg>
